<svg width="108" height="18" viewBox="0 0 108 18" fill="none" xmlns="http://www.w3.org/2000/svg">
<path d="M0 7.99707C0 7.6657 0.268629 7.39707 0.6 7.39707H5.4C5.73137 7.39707 6 7.6657 6 7.99707V9.19707C6 9.52844 5.73137 9.79707 5.4 9.79707H0.6C0.268629 9.79707 0 9.52844 0 9.19707V7.99707Z" fill="#141412"/>
<path d="M8.39979 7.99707C8.39979 7.6657 8.66842 7.39707 8.99979 7.39707H13.7998C14.1312 7.39707 14.3998 7.6657 14.3998 7.99707V9.19707C14.3998 9.52844 14.1312 9.79707 13.7998 9.79707H8.99979C8.66842 9.79707 8.39979 9.52844 8.39979 9.19707V7.99707Z" fill="#141412"/>
<path d="M14.4025 12.7971C14.4025 12.4657 14.6711 12.1971 15.0025 12.1971H19.8025C20.1339 12.1971 20.4025 12.4657 20.4025 12.7971V13.9971C20.4025 14.3284 20.1339 14.5971 19.8025 14.5971H15.0025C14.6711 14.5971 14.4025 14.3284 14.4025 13.9971V12.7971Z" fill="#141412"/>
<path d="M6.00269 3.19707C6.00269 2.8657 6.27132 2.59707 6.60269 2.59707H11.4027C11.7341 2.59707 12.0027 2.8657 12.0027 3.19707V4.39707C12.0027 4.72844 11.7341 4.99707 11.4027 4.99707H6.60269C6.27132 4.99707 6.00269 4.72844 6.00269 4.39707V3.19707Z" fill="#A3A093"/>
<path d="M14.4025 3.19707C14.4025 2.8657 14.6711 2.59707 15.0025 2.59707H19.8025C20.1339 2.59707 20.4025 2.8657 20.4025 3.19707V4.39707C20.4025 4.72844 20.1339 4.99707 19.8025 4.99707H15.0025C14.6711 4.99707 14.4025 4.72844 14.4025 4.39707V3.19707Z" fill="#141412"/>
<path d="M6.00269 12.7971C6.00269 12.4657 6.27132 12.1971 6.60269 12.1971H11.4027C11.7341 12.1971 12.0027 12.4657 12.0027 12.7971V13.9971C12.0027 14.3284 11.7341 14.5971 11.4027 14.5971H6.60269C6.27132 14.5971 6.00269 14.3284 6.00269 13.9971V12.7971Z" fill="#A3A093"/>
<path d="M32.3984 14.28C31.0384 14.28 29.9518 13.8867 29.1384 13.1C28.3384 12.3133 27.9384 11.24 27.9384 9.88V7.32C27.9384 5.94667 28.3384 4.87333 29.1384 4.1C29.9384 3.31333 31.0251 2.92 32.3984 2.92C33.7718 2.92 34.8584 3.31333 35.6584 4.1C36.4584 4.87333 36.8584 5.94667 36.8584 7.32V9.88C36.8584 11.24 36.4518 12.3133 35.6384 13.1C34.8384 13.8867 33.7584 14.28 32.3984 14.28ZM32.3984 12.38C33.1184 12.38 33.6784 12.18 34.0784 11.78C34.4918 11.3667 34.6984 10.78 34.6984 10.02V7.18C34.6984 6.42 34.4918 5.84 34.0784 5.44C33.6784 5.02667 33.1184 4.82 32.3984 4.82C31.6784 4.82 31.1118 5.02667 30.6984 5.44C30.2984 5.84 30.0984 6.42 30.0984 7.18V10.02C30.0984 10.78 30.2984 11.3667 30.6984 11.78C31.1118 12.18 31.6784 12.38 32.3984 12.38Z" fill="#141412"/>
<path d="M44.1706 14.3C42.8373 14.3 41.7773 13.92 40.9906 13.16C40.2173 12.3867 39.8306 11.34 39.8306 10.02V3.1H41.9906V10C41.9906 10.7467 42.184 11.34 42.5706 11.78C42.9573 12.2067 43.4906 12.42 44.1706 12.42C44.864 12.42 45.404 12.2067 45.7906 11.78C46.1906 11.34 46.3906 10.7467 46.3906 10V3.1H48.5506V10.02C48.5506 11.34 48.1506 12.3867 47.3506 13.16C46.564 13.92 45.504 14.3 44.1706 14.3Z" fill="#141412"/>
<path d="M57.0828 14.1C56.1095 14.1 55.3361 13.82 54.7628 13.26C54.1895 12.7 53.9028 11.94 53.9028 10.98V5.06H50.8028V3.1H53.9028V0H56.0628V3.1H60.5028V5.06H56.0628V10.96C56.0628 11.3067 56.1628 11.5933 56.3628 11.82C56.5628 12.0333 56.8361 12.14 57.1828 12.14H60.4028V14.1H57.0828Z" fill="#141412"/>
<path d="M63.455 17.7V3.1H65.595V5.18C65.7417 4.46 66.075 3.9 66.595 3.5C67.1283 3.1 67.795 2.9 68.595 2.9C69.6883 2.9 70.5617 3.28 71.215 4.04C71.8683 4.78667 72.195 5.78667 72.195 7.04V10.14C72.195 11.4067 71.8683 12.42 71.215 13.18C70.5617 13.9267 69.6883 14.3 68.595 14.3C67.795 14.3 67.1283 14.0933 66.595 13.68C66.0617 13.2533 65.7217 12.6733 65.575 11.94H65.555L65.615 14.56V17.7H63.455ZM67.835 12.42C68.5283 12.42 69.0683 12.24 69.455 11.88C69.8417 11.5067 70.035 10.9133 70.035 10.1V7.08C70.035 6.28 69.8417 5.7 69.455 5.34C69.0683 4.96667 68.5283 4.78 67.835 4.78C67.1417 4.78 66.595 4.99333 66.195 5.42C65.8083 5.83333 65.615 6.42 65.615 7.18V10C65.615 10.7733 65.8083 11.3733 66.195 11.8C66.595 12.2133 67.1417 12.42 67.835 12.42Z" fill="#141412"/>
<path d="M79.5672 14.28C78.2072 14.28 77.1205 13.8867 76.3072 13.1C75.5072 12.3133 75.1072 11.24 75.1072 9.88V7.32C75.1072 5.94667 75.5072 4.87333 76.3072 4.1C77.1072 3.31333 78.1939 2.92 79.5672 2.92C80.9405 2.92 82.0272 3.31333 82.8272 4.1C83.6272 4.87333 84.0272 5.94667 84.0272 7.32V9.88C84.0272 11.24 83.6205 12.3133 82.8072 13.1C82.0072 13.8867 80.9272 14.28 79.5672 14.28ZM79.5672 12.38C80.2872 12.38 80.8472 12.18 81.2472 11.78C81.6605 11.3667 81.8672 10.78 81.8672 10.02V7.18C81.8672 6.42 81.6605 5.84 81.2472 5.44C80.8472 5.02667 80.2872 4.82 79.5672 4.82C78.8472 4.82 78.2805 5.02667 77.8672 5.44C77.4672 5.84 77.2672 6.42 77.2672 7.18V10.02C77.2672 10.78 77.4672 11.3667 77.8672 11.78C78.2805 12.18 78.8472 12.38 79.5672 12.38Z" fill="#141412"/>
<path d="M90.9194 14.28C89.6527 14.28 88.6594 13.9933 87.9394 13.42C87.2194 12.8467 86.8594 12.0467 86.8594 11.02H88.9994C88.9994 11.4867 89.166 11.8533 89.4994 12.12C89.8327 12.3733 90.306 12.5 90.9194 12.5H91.7994C92.426 12.5 92.9127 12.3733 93.2594 12.12C93.606 11.8533 93.7794 11.48 93.7794 11C93.7794 10.16 93.3327 9.68 92.4394 9.56L89.5394 9.16C88.726 9.05333 88.0994 8.73333 87.6594 8.2C87.2194 7.65333 86.9994 6.94667 86.9994 6.08C86.9994 5.08 87.3327 4.30667 87.9994 3.76C88.6794 3.2 89.6394 2.92 90.8794 2.92H91.7794C92.926 2.92 93.8527 3.19333 94.5594 3.74C95.2794 4.28667 95.6594 5.00667 95.6994 5.9H93.5394C93.5127 5.54 93.3394 5.24667 93.0194 5.02C92.7127 4.78 92.2994 4.66 91.7794 4.66H90.8794C90.306 4.66 89.8594 4.78667 89.5394 5.04C89.2327 5.29333 89.0794 5.62667 89.0794 6.04C89.0794 6.73333 89.4594 7.13333 90.2194 7.24L92.9394 7.6C94.8994 7.86667 95.8794 8.99333 95.8794 10.98C95.8794 12.0333 95.526 12.8467 94.8194 13.42C94.1127 13.9933 93.106 14.28 91.7994 14.28H90.9194Z" fill="#141412"/>
<path d="M104.252 14.1C103.278 14.1 102.505 13.82 101.932 13.26C101.358 12.7 101.072 11.94 101.072 10.98V5.06H97.9716V3.1H101.072V0H103.232V3.1H107.672V5.06H103.232V10.96C103.232 11.3067 103.332 11.5933 103.532 11.82C103.732 12.0333 104.005 12.14 104.352 12.14H107.572V14.1H104.252Z" fill="#141412"/>
</svg>
