<svg width="110" height="18" viewBox="0 0 110 18" fill="none" xmlns="http://www.w3.org/2000/svg">
<path d="M0 7.99707C0 7.6657 0.268629 7.39707 0.6 7.39707H5.4C5.73137 7.39707 6 7.6657 6 7.99707V9.19707C6 9.52844 5.73137 9.79707 5.4 9.79707H0.6C0.268629 9.79707 0 9.52844 0 9.19707V7.99707Z" fill="#141412"/>
<path d="M8.39979 7.99707C8.39979 7.6657 8.66842 7.39707 8.99979 7.39707H13.7998C14.1312 7.39707 14.3998 7.6657 14.3998 7.99707V9.19707C14.3998 9.52844 14.1312 9.79707 13.7998 9.79707H8.99979C8.66842 9.79707 8.39979 9.52844 8.39979 9.19707V7.99707Z" fill="#141412"/>
<path d="M14.4025 12.7971C14.4025 12.4657 14.6711 12.1971 15.0025 12.1971H19.8025C20.1339 12.1971 20.4025 12.4657 20.4025 12.7971V13.9971C20.4025 14.3284 20.1339 14.5971 19.8025 14.5971H15.0025C14.6711 14.5971 14.4025 14.3284 14.4025 13.9971V12.7971Z" fill="#141412"/>
<path d="M6.00269 3.19707C6.00269 2.8657 6.27132 2.59707 6.60269 2.59707H11.4027C11.7341 2.59707 12.0027 2.8657 12.0027 3.19707V4.39707C12.0027 4.72844 11.7341 4.99707 11.4027 4.99707H6.60269C6.27132 4.99707 6.00269 4.72844 6.00269 4.39707V3.19707Z" fill="#A3A093"/>
<path d="M14.4025 3.19707C14.4025 2.8657 14.6711 2.59707 15.0025 2.59707H19.8025C20.1339 2.59707 20.4025 2.8657 20.4025 3.19707V4.39707C20.4025 4.72844 20.1339 4.99707 19.8025 4.99707H15.0025C14.6711 4.99707 14.4025 4.72844 14.4025 4.39707V3.19707Z" fill="#141412"/>
<path d="M6.00269 12.7971C6.00269 12.4657 6.27132 12.1971 6.60269 12.1971H11.4027C11.7341 12.1971 12.0027 12.4657 12.0027 12.7971V13.9971C12.0027 14.3284 11.7341 14.5971 11.4027 14.5971H6.60269C6.27132 14.5971 6.00269 14.3284 6.00269 13.9971V12.7971Z" fill="#A3A093"/>
<path d="M34.3984 14.28C33.0384 14.28 31.9518 13.8867 31.1384 13.1C30.3384 12.3133 29.9384 11.24 29.9384 9.88V7.32C29.9384 5.94667 30.3384 4.87333 31.1384 4.1C31.9384 3.31333 33.0251 2.92 34.3984 2.92C35.7718 2.92 36.8584 3.31333 37.6584 4.1C38.4584 4.87333 38.8584 5.94667 38.8584 7.32V9.88C38.8584 11.24 38.4518 12.3133 37.6384 13.1C36.8384 13.8867 35.7584 14.28 34.3984 14.28ZM34.3984 12.38C35.1184 12.38 35.6784 12.18 36.0784 11.78C36.4918 11.3667 36.6984 10.78 36.6984 10.02V7.18C36.6984 6.42 36.4918 5.84 36.0784 5.44C35.6784 5.02667 35.1184 4.82 34.3984 4.82C33.6784 4.82 33.1118 5.02667 32.6984 5.44C32.2984 5.84 32.0984 6.42 32.0984 7.18V10.02C32.0984 10.78 32.2984 11.3667 32.6984 11.78C33.1118 12.18 33.6784 12.38 34.3984 12.38Z" fill="#141412"/>
<path d="M46.1706 14.3C44.8373 14.3 43.7773 13.92 42.9906 13.16C42.2173 12.3867 41.8306 11.34 41.8306 10.02V3.1H43.9906V10C43.9906 10.7467 44.184 11.34 44.5706 11.78C44.9573 12.2067 45.4906 12.42 46.1706 12.42C46.864 12.42 47.404 12.2067 47.7906 11.78C48.1906 11.34 48.3906 10.7467 48.3906 10V3.1H50.5506V10.02C50.5506 11.34 50.1506 12.3867 49.3506 13.16C48.564 13.92 47.504 14.3 46.1706 14.3Z" fill="#141412"/>
<path d="M59.0828 14.1C58.1095 14.1 57.3361 13.82 56.7628 13.26C56.1895 12.7 55.9028 11.94 55.9028 10.98V5.06H52.8028V3.1H55.9028V0H58.0628V3.1H62.5028V5.06H58.0628V10.96C58.0628 11.3067 58.1628 11.5933 58.3628 11.82C58.5628 12.0333 58.8361 12.14 59.1828 12.14H62.4028V14.1H59.0828Z" fill="#141412"/>
<path d="M65.455 17.7V3.1H67.595V5.18C67.7417 4.46 68.075 3.9 68.595 3.5C69.1283 3.1 69.795 2.9 70.595 2.9C71.6883 2.9 72.5617 3.28 73.215 4.04C73.8683 4.78667 74.195 5.78667 74.195 7.04V10.14C74.195 11.4067 73.8683 12.42 73.215 13.18C72.5617 13.9267 71.6883 14.3 70.595 14.3C69.795 14.3 69.1283 14.0933 68.595 13.68C68.0617 13.2533 67.7217 12.6733 67.575 11.94H67.555L67.615 14.56V17.7H65.455ZM69.835 12.42C70.5283 12.42 71.0683 12.24 71.455 11.88C71.8417 11.5067 72.035 10.9133 72.035 10.1V7.08C72.035 6.28 71.8417 5.7 71.455 5.34C71.0683 4.96667 70.5283 4.78 69.835 4.78C69.1417 4.78 68.595 4.99333 68.195 5.42C67.8083 5.83333 67.615 6.42 67.615 7.18V10C67.615 10.7733 67.8083 11.3733 68.195 11.8C68.595 12.2133 69.1417 12.42 69.835 12.42Z" fill="#141412"/>
<path d="M81.5672 14.28C80.2072 14.28 79.1205 13.8867 78.3072 13.1C77.5072 12.3133 77.1072 11.24 77.1072 9.88V7.32C77.1072 5.94667 77.5072 4.87333 78.3072 4.1C79.1072 3.31333 80.1939 2.92 81.5672 2.92C82.9405 2.92 84.0272 3.31333 84.8272 4.1C85.6272 4.87333 86.0272 5.94667 86.0272 7.32V9.88C86.0272 11.24 85.6205 12.3133 84.8072 13.1C84.0072 13.8867 82.9272 14.28 81.5672 14.28ZM81.5672 12.38C82.2872 12.38 82.8472 12.18 83.2472 11.78C83.6605 11.3667 83.8672 10.78 83.8672 10.02V7.18C83.8672 6.42 83.6605 5.84 83.2472 5.44C82.8472 5.02667 82.2872 4.82 81.5672 4.82C80.8472 4.82 80.2805 5.02667 79.8672 5.44C79.4672 5.84 79.2672 6.42 79.2672 7.18V10.02C79.2672 10.78 79.4672 11.3667 79.8672 11.78C80.2805 12.18 80.8472 12.38 81.5672 12.38Z" fill="#141412"/>
<path d="M92.9194 14.28C91.6527 14.28 90.6594 13.9933 89.9394 13.42C89.2194 12.8467 88.8594 12.0467 88.8594 11.02H90.9994C90.9994 11.4867 91.166 11.8533 91.4994 12.12C91.8327 12.3733 92.306 12.5 92.9194 12.5H93.7994C94.426 12.5 94.9127 12.3733 95.2594 12.12C95.606 11.8533 95.7794 11.48 95.7794 11C95.7794 10.16 95.3327 9.68 94.4394 9.56L91.5394 9.16C90.726 9.05333 90.0994 8.73333 89.6594 8.2C89.2194 7.65333 88.9994 6.94667 88.9994 6.08C88.9994 5.08 89.3327 4.30667 89.9994 3.76C90.6794 3.2 91.6394 2.92 92.8794 2.92H93.7794C94.926 2.92 95.8527 3.19333 96.5594 3.74C97.2794 4.28667 97.6594 5.00667 97.6994 5.9H95.5394C95.5127 5.54 95.3394 5.24667 95.0194 5.02C94.7127 4.78 94.2994 4.66 93.7794 4.66H92.8794C92.306 4.66 91.8594 4.78667 91.5394 5.04C91.2327 5.29333 91.0794 5.62667 91.0794 6.04C91.0794 6.73333 91.4594 7.13333 92.2194 7.24L94.9394 7.6C96.8994 7.86667 97.8794 8.99333 97.8794 10.98C97.8794 12.0333 97.526 12.8467 96.8194 13.42C96.1127 13.9933 95.106 14.28 93.7994 14.28H92.9194Z" fill="#141412"/>
<path d="M106.252 14.1C105.278 14.1 104.505 13.82 103.932 13.26C103.358 12.7 103.072 11.94 103.072 10.98V5.06H99.9716V3.1H103.072V0H105.232V3.1H109.672V5.06H105.232V10.96C105.232 11.3067 105.332 11.5933 105.532 11.82C105.732 12.0333 106.005 12.14 106.352 12.14H109.572V14.1H106.252Z" fill="#141412"/>
</svg>
