<svg width="24" height="24" viewBox="0 0 24 24" fill="none" xmlns="http://www.w3.org/2000/svg">
<path d="M6.82105 10.1347C6.82105 10.4152 6.85263 10.6427 6.9079 10.8095C6.97105 10.9763 7.05 11.1583 7.16053 11.3554C7.2 11.4161 7.21579 11.4768 7.21579 11.5298C7.21579 11.6057 7.16842 11.6815 7.06579 11.7573L6.56842 12.0758C6.49737 12.1213 6.42632 12.144 6.36316 12.144C6.28421 12.144 6.20526 12.1061 6.12632 12.0379C6.01579 11.9241 5.92105 11.8028 5.84211 11.6815C5.76316 11.5526 5.68421 11.4085 5.59737 11.2341C4.98158 11.9317 4.2079 12.2805 3.27632 12.2805C2.61316 12.2805 2.08421 12.0985 1.69737 11.7346C1.31053 11.3706 1.11316 10.8853 1.11316 10.2787C1.11316 9.63423 1.35 9.11104 1.83158 8.71676C2.31316 8.32247 2.95263 8.12533 3.76579 8.12533C4.03421 8.12533 4.31053 8.14807 4.60263 8.18599C4.89474 8.2239 5.19474 8.28456 5.51053 8.3528V7.79928C5.51053 7.22302 5.38421 6.82115 5.13948 6.5861C4.88684 6.35104 4.46053 6.23731 3.85263 6.23731C3.57632 6.23731 3.29211 6.26764 3 6.33588C2.7079 6.40412 2.42369 6.48753 2.14737 6.59368C2.02105 6.64676 1.92632 6.67709 1.87105 6.69225C1.81579 6.70742 1.77632 6.715 1.74474 6.715C1.63421 6.715 1.57895 6.63917 1.57895 6.47994V6.1084C1.57895 5.98709 1.59474 5.8961 1.63421 5.84302C1.67369 5.78994 1.74474 5.73687 1.85526 5.68379C2.13158 5.54731 2.46316 5.43357 2.85 5.34258C3.23684 5.24401 3.64737 5.19851 4.08158 5.19851C5.02105 5.19851 5.7079 5.40324 6.15 5.81269C6.58421 6.22214 6.80526 6.8439 6.80526 7.67796V10.1347H6.82105ZM3.61579 11.2872C3.87632 11.2872 4.14474 11.2417 4.42895 11.1507C4.71316 11.0597 4.96579 10.8929 5.17895 10.6654C5.30526 10.5214 5.4 10.3621 5.44737 10.1802C5.49474 9.99818 5.52632 9.77829 5.52632 9.52049V9.20203C5.29737 9.14895 5.05263 9.10346 4.8 9.07313C4.54737 9.0428 4.30263 9.02764 4.0579 9.02764C3.52895 9.02764 3.14211 9.12621 2.88158 9.33093C2.62105 9.53566 2.49474 9.82379 2.49474 10.2029C2.49474 10.5593 2.58947 10.8247 2.78684 11.0066C2.97632 11.1962 3.25263 11.2872 3.61579 11.2872ZM9.95526 12.1061C9.81316 12.1061 9.71842 12.0833 9.65527 12.0303C9.59211 11.9848 9.53684 11.8786 9.48948 11.7346L7.63421 5.87335C7.58684 5.7217 7.56316 5.62313 7.56316 5.57005C7.56316 5.44873 7.62632 5.38049 7.75263 5.38049H8.52632C8.67632 5.38049 8.77895 5.40324 8.83421 5.45632C8.89737 5.50181 8.94474 5.60797 8.99211 5.75203L10.3184 10.7716L11.55 5.75203C11.5895 5.60038 11.6368 5.50181 11.7 5.45632C11.7632 5.41082 11.8737 5.38049 12.0158 5.38049H12.6474C12.7974 5.38049 12.9 5.40324 12.9632 5.45632C13.0263 5.50181 13.0816 5.60797 13.1132 5.75203L14.3605 10.8323L15.7263 5.75203C15.7737 5.60038 15.8289 5.50181 15.8842 5.45632C15.9474 5.41082 16.05 5.38049 16.1921 5.38049H16.9263C17.0526 5.38049 17.1237 5.44115 17.1237 5.57005C17.1237 5.60796 17.1158 5.64588 17.1079 5.69137C17.1 5.73687 17.0842 5.79753 17.0526 5.88093L15.15 11.7421C15.1026 11.8938 15.0474 11.9924 14.9842 12.0379C14.9211 12.0833 14.8184 12.1137 14.6842 12.1137H14.0053C13.8553 12.1137 13.7526 12.0909 13.6895 12.0379C13.6263 11.9848 13.5711 11.8862 13.5395 11.7346L12.3158 6.8439L11.1 11.727C11.0605 11.8786 11.0132 11.9772 10.95 12.0303C10.8868 12.0833 10.7763 12.1061 10.6342 12.1061H9.95526ZM20.1 12.3108C19.6895 12.3108 19.2789 12.2653 18.8842 12.1743C18.4895 12.0833 18.1816 11.9848 17.9763 11.871C17.85 11.8028 17.7632 11.727 17.7316 11.6587C17.7 11.5905 17.6842 11.5147 17.6842 11.4464V11.0597C17.6842 10.9005 17.7474 10.8247 17.8658 10.8247C17.9132 10.8247 17.9605 10.8323 18.0079 10.8474C18.0553 10.8626 18.1263 10.8929 18.2053 10.9232C18.4737 11.037 18.7658 11.128 19.0737 11.1886C19.3895 11.2493 19.6974 11.2796 20.0132 11.2796C20.5105 11.2796 20.8974 11.1962 21.1658 11.0294C21.4342 10.8626 21.5763 10.6199 21.5763 10.3091C21.5763 10.0968 21.5053 9.92236 21.3632 9.77829C21.2211 9.63423 20.9526 9.50533 20.5658 9.38401L19.4211 9.0428C18.8447 8.8684 18.4184 8.6106 18.1579 8.26939C17.8974 7.93577 17.7632 7.56423 17.7632 7.16994C17.7632 6.85148 17.8342 6.57093 17.9763 6.32829C18.1184 6.08566 18.3079 5.87335 18.5447 5.70654C18.7816 5.53214 19.05 5.40324 19.3658 5.31225C19.6816 5.22126 20.0132 5.18335 20.3605 5.18335C20.5342 5.18335 20.7158 5.19093 20.8895 5.21368C21.0711 5.23643 21.2368 5.26676 21.4026 5.29709C21.5605 5.335 21.7105 5.37291 21.8526 5.4184C21.9947 5.4639 22.1053 5.50939 22.1842 5.55489C22.2947 5.61555 22.3737 5.67621 22.4211 5.74445C22.4684 5.80511 22.4921 5.88851 22.4921 5.99467V6.35104C22.4921 6.51027 22.4289 6.59368 22.3105 6.59368C22.2474 6.59368 22.1447 6.56335 22.0105 6.50269C21.5605 6.30555 21.0553 6.20698 20.4947 6.20698C20.0447 6.20698 19.6895 6.27522 19.4447 6.41928C19.2 6.56335 19.0737 6.78324 19.0737 7.09412C19.0737 7.30643 19.1526 7.4884 19.3105 7.63247C19.4684 7.77654 19.7605 7.9206 20.1789 8.0495L21.3 8.39071C21.8684 8.56511 22.2789 8.80775 22.5237 9.11862C22.7684 9.4295 22.8868 9.78588 22.8868 10.1802C22.8868 10.5062 22.8158 10.8019 22.6816 11.0597C22.5395 11.3175 22.35 11.545 22.1053 11.727C21.8605 11.9165 21.5684 12.053 21.2289 12.1516C20.8737 12.2577 20.5026 12.3108 20.1 12.3108Z" fill="white"/>
<path fill-rule="evenodd" clip-rule="evenodd" d="M21.592 15.9959C18.9946 17.8385 15.221 18.8166 11.9762 18.8166C7.42886 18.8166 3.33149 17.2015 0.236751 14.5174C-0.00798583 14.305 0.213067 14.0169 0.505172 14.1837C3.85254 16.049 7.98149 17.1788 12.2525 17.1788C15.1341 17.1788 18.2999 16.6025 21.2131 15.4197C21.6473 15.2301 22.0183 15.6926 21.592 15.9959Z" fill="#FF9900"/>
<path fill-rule="evenodd" clip-rule="evenodd" d="M22.6736 14.8131C22.342 14.4037 20.4789 14.616 19.6341 14.7145C19.3815 14.7449 19.342 14.5326 19.571 14.3733C21.0552 13.3724 23.4947 13.6606 23.7789 13.9942C24.0631 14.3354 23.6999 16.6784 22.3105 17.8006C22.0973 17.975 21.892 17.884 21.9868 17.6565C22.3026 16.9059 23.0052 15.215 22.6736 14.8131Z" fill="#FF9900"/>
</svg>
