<svg width="24" height="24" viewBox="0 0 24 24" fill="none" xmlns="http://www.w3.org/2000/svg">
<path d="M8.70109 2.67234H14.5596L8.47789 20.6919C8.41538 20.8771 8.29638 21.038 8.13763 21.152C7.97889 21.2659 7.78839 21.3273 7.59296 21.3273H3.03356C2.88549 21.3273 2.73955 21.2921 2.6078 21.2245C2.47605 21.1569 2.36228 21.059 2.27592 20.9387C2.18955 20.8184 2.13306 20.6793 2.11112 20.5329C2.08919 20.3864 2.10243 20.2369 2.14976 20.0966L7.81594 3.30774C7.87842 3.1225 7.99744 2.96153 8.15623 2.8475C8.31503 2.73347 8.50559 2.67236 8.70109 2.67234Z" fill="url(#paint0_linear_747_202)"/>
<path d="M17.2144 14.7587H7.9241C7.83773 14.7586 7.75333 14.7845 7.6819 14.833C7.61047 14.8816 7.55532 14.9505 7.52364 15.0309C7.49195 15.1112 7.48519 15.1993 7.50425 15.2835C7.52331 15.3678 7.56729 15.4443 7.63048 15.5032L13.6002 21.0751C13.774 21.2372 14.0028 21.3274 14.2405 21.3273H19.501L17.2144 14.7587Z" fill="#0078D4"/>
<path d="M8.701 2.67237C8.50337 2.67161 8.31067 2.73406 8.15106 2.85061C7.99145 2.96715 7.87328 3.13167 7.81382 3.32015L2.15665 20.0813C2.10613 20.2221 2.09027 20.373 2.11041 20.5212C2.13055 20.6695 2.18609 20.8107 2.27235 20.9329C2.3586 21.0552 2.47302 21.1548 2.60594 21.2235C2.73885 21.2921 2.88635 21.3277 3.03595 21.3273H7.71302C7.88722 21.2962 8.05003 21.2194 8.18482 21.1048C8.31962 20.9901 8.42158 20.8418 8.48027 20.6748L9.60842 17.35L13.6382 21.1086C13.807 21.2483 14.0189 21.3256 14.238 21.3273H19.4789L17.1803 14.7587L10.4796 14.7603L14.5807 2.67237H8.701Z" fill="url(#paint1_linear_747_202)"/>
<path d="M16.1838 3.30686C16.1214 3.12192 16.0026 2.96121 15.844 2.84739C15.6855 2.73356 15.4952 2.67234 15.3 2.67236H8.77075C8.96593 2.67237 9.15618 2.7336 9.31473 2.84743C9.47328 2.96125 9.59213 3.12194 9.65455 3.30686L15.321 20.0964C15.3683 20.2367 15.3816 20.3863 15.3597 20.5328C15.3378 20.6792 15.2813 20.8184 15.1949 20.9387C15.1085 21.059 14.9948 21.157 14.863 21.2247C14.7312 21.2923 14.5853 21.3276 14.4372 21.3276H20.9667C21.1147 21.3275 21.2607 21.2922 21.3924 21.2246C21.5242 21.1569 21.6379 21.0589 21.7243 20.9386C21.8106 20.8183 21.8671 20.6792 21.889 20.5327C21.9109 20.3862 21.8976 20.2367 21.8502 20.0964L16.1838 3.30686Z" fill="url(#paint2_linear_747_202)"/>
<defs>
<linearGradient id="paint0_linear_747_202" x1="10.8363" y1="4.05474" x2="4.75211" y2="22.0291" gradientUnits="userSpaceOnUse">
<stop stop-color="#114A8B"/>
<stop offset="1" stop-color="#0669BC"/>
</linearGradient>
<linearGradient id="paint1_linear_747_202" x1="12.7368" y1="12.4313" x2="11.3294" y2="12.9072" gradientUnits="userSpaceOnUse">
<stop stop-opacity="0.3"/>
<stop offset="0.071" stop-opacity="0.2"/>
<stop offset="0.321" stop-opacity="0.1"/>
<stop offset="0.623" stop-opacity="0.05"/>
<stop offset="1" stop-opacity="0"/>
</linearGradient>
<linearGradient id="paint2_linear_747_202" x1="11.9628" y1="3.53051" x2="18.6415" y2="21.3237" gradientUnits="userSpaceOnUse">
<stop stop-color="#3CCBF4"/>
<stop offset="1" stop-color="#2892DF"/>
</linearGradient>
</defs>
</svg>
