<svg width="1728" height="801" viewBox="0 0 1728 801" fill="none" xmlns="http://www.w3.org/2000/svg">
<line x1="1728" y1="800.5" x2="-4.37115e-08" y2="800.5" stroke="#668FE0"/>
<line x1="1729" y1="768.5" x2="1" y2="768.5" stroke="#668FE0"/>
<line x1="1729" y1="736.5" x2="1" y2="736.5" stroke="#668FE0"/>
<line x1="1729" y1="704.5" x2="1" y2="704.5" stroke="#668FE0"/>
<line x1="1729" y1="672.5" x2="1" y2="672.5" stroke="#668FE0"/>
<line x1="1729" y1="640.5" x2="1" y2="640.5" stroke="#668FE0"/>
<line x1="1729" y1="608.5" x2="1" y2="608.5" stroke="#668FE0"/>
<line x1="1729" y1="576.5" x2="1" y2="576.5" stroke="#668FE0"/>
<line x1="1729" y1="544.5" x2="1" y2="544.5" stroke="#668FE0"/>
<line x1="1729" y1="512.5" x2="1" y2="512.5" stroke="#668FE0"/>
<line x1="1729" y1="480.5" x2="1" y2="480.5" stroke="#668FE0"/>
<line x1="1729" y1="448.5" x2="1" y2="448.5" stroke="#668FE0"/>
<line x1="1729" y1="416.5" x2="1" y2="416.5" stroke="#668FE0"/>
<line x1="1729" y1="384.5" x2="1" y2="384.5" stroke="#668FE0"/>
<line x1="1729" y1="352.5" x2="1" y2="352.5" stroke="#668FE0"/>
<line x1="1729" y1="320.5" x2="1" y2="320.5" stroke="#668FE0"/>
<line x1="1729" y1="288.5" x2="1" y2="288.5" stroke="#668FE0"/>
<line x1="1729" y1="256.5" x2="1" y2="256.5" stroke="#668FE0"/>
<line x1="1729" y1="224.5" x2="1" y2="224.5" stroke="#668FE0"/>
<line x1="1729" y1="192.5" x2="1" y2="192.5" stroke="#668FE0"/>
<line x1="1729" y1="160.5" x2="1" y2="160.5" stroke="#668FE0"/>
<line x1="1729" y1="128.5" x2="1" y2="128.5" stroke="#668FE0"/>
<line x1="1729" y1="96.5" x2="1" y2="96.4998" stroke="#668FE0"/>
<line x1="1729" y1="64.5" x2="1" y2="64.4998" stroke="#668FE0"/>
<line x1="1729" y1="32.5" x2="1" y2="32.4998" stroke="#668FE0"/>
<line x1="1696.5" y1="2.18559e-08" x2="1696.5" y2="800" stroke="#668FE0"/>
<line x1="1664.5" y1="2.18559e-08" x2="1664.5" y2="800" stroke="#668FE0"/>
<line x1="1632.5" y1="2.18559e-08" x2="1632.5" y2="800" stroke="#668FE0"/>
<line x1="1600.5" y1="2.18559e-08" x2="1600.5" y2="800" stroke="#668FE0"/>
<line x1="1568.5" y1="2.18559e-08" x2="1568.5" y2="800" stroke="#668FE0"/>
<line x1="1536.5" y1="2.18559e-08" x2="1536.5" y2="800" stroke="#668FE0"/>
<line x1="1504.5" y1="2.18559e-08" x2="1504.5" y2="800" stroke="#668FE0"/>
<line x1="1472.5" y1="2.18559e-08" x2="1472.5" y2="800" stroke="#668FE0"/>
<line x1="1440.5" y1="2.18559e-08" x2="1440.5" y2="800" stroke="#668FE0"/>
<line x1="1408.5" y1="2.18559e-08" x2="1408.5" y2="800" stroke="#668FE0"/>
<line x1="1376.5" y1="2.18559e-08" x2="1376.5" y2="800" stroke="#668FE0"/>
<line x1="1344.5" y1="2.18559e-08" x2="1344.5" y2="800" stroke="#668FE0"/>
<line x1="1312.5" y1="2.18559e-08" x2="1312.5" y2="800" stroke="#668FE0"/>
<line x1="1280.5" y1="2.18559e-08" x2="1280.5" y2="800" stroke="#668FE0"/>
<line x1="1248.5" y1="2.18559e-08" x2="1248.5" y2="800" stroke="#668FE0"/>
<line x1="1216.5" y1="2.18559e-08" x2="1216.5" y2="800" stroke="#668FE0"/>
<line x1="1184.5" y1="2.18559e-08" x2="1184.5" y2="800" stroke="#668FE0"/>
<line x1="1152.5" y1="2.18559e-08" x2="1152.5" y2="800" stroke="#668FE0"/>
<line x1="1120.5" y1="2.18559e-08" x2="1120.5" y2="800" stroke="#668FE0"/>
<line x1="1088.5" y1="2.18559e-08" x2="1088.5" y2="800" stroke="#668FE0"/>
<line x1="1056.5" y1="2.18559e-08" x2="1056.5" y2="800" stroke="#668FE0"/>
<line x1="1024.5" y1="2.18559e-08" x2="1024.5" y2="800" stroke="#668FE0"/>
<line x1="992.5" y1="2.18559e-08" x2="992.5" y2="800" stroke="#668FE0"/>
<line x1="960.5" y1="2.18559e-08" x2="960.5" y2="800" stroke="#668FE0"/>
<line x1="928.5" y1="2.18559e-08" x2="928.5" y2="800" stroke="#668FE0"/>
<line x1="896.5" y1="2.18559e-08" x2="896.5" y2="800" stroke="#668FE0"/>
<line x1="864.5" y1="2.18559e-08" x2="864.5" y2="800" stroke="#668FE0"/>
<line x1="832.5" y1="2.18559e-08" x2="832.5" y2="800" stroke="#668FE0"/>
<line x1="800.5" y1="2.18559e-08" x2="800.5" y2="800" stroke="#668FE0"/>
<line x1="768.5" y1="2.18559e-08" x2="768.5" y2="800" stroke="#668FE0"/>
<line x1="736.5" y1="2.18559e-08" x2="736.5" y2="800" stroke="#668FE0"/>
<line x1="704.5" y1="2.18559e-08" x2="704.5" y2="800" stroke="#668FE0"/>
<line x1="672.5" y1="2.18559e-08" x2="672.5" y2="800" stroke="#668FE0"/>
<line x1="640.5" y1="2.18559e-08" x2="640.5" y2="800" stroke="#668FE0"/>
<line x1="608.5" y1="2.18559e-08" x2="608.5" y2="800" stroke="#668FE0"/>
<line x1="576.5" y1="2.18559e-08" x2="576.5" y2="800" stroke="#668FE0"/>
<line x1="544.5" y1="2.18559e-08" x2="544.5" y2="800" stroke="#668FE0"/>
<line x1="512.5" y1="2.18559e-08" x2="512.5" y2="800" stroke="#668FE0"/>
<line x1="480.5" y1="2.18559e-08" x2="480.5" y2="800" stroke="#668FE0"/>
<line x1="448.5" y1="2.18559e-08" x2="448.5" y2="800" stroke="#668FE0"/>
<line x1="416.5" y1="2.18559e-08" x2="416.5" y2="800" stroke="#668FE0"/>
<line x1="384.5" y1="2.18559e-08" x2="384.5" y2="800" stroke="#668FE0"/>
<line x1="352.5" y1="2.18559e-08" x2="352.5" y2="800" stroke="#668FE0"/>
<line x1="320.5" y1="2.18559e-08" x2="320.5" y2="800" stroke="#668FE0"/>
<line x1="288.5" y1="2.18559e-08" x2="288.5" y2="800" stroke="#668FE0"/>
<line x1="256.5" y1="2.18559e-08" x2="256.5" y2="800" stroke="#668FE0"/>
<line x1="224.5" y1="2.18559e-08" x2="224.5" y2="800" stroke="#668FE0"/>
<line x1="192.5" y1="2.18559e-08" x2="192.5" y2="800" stroke="#668FE0"/>
<line x1="160.5" y1="2.18559e-08" x2="160.5" y2="800" stroke="#668FE0"/>
<line x1="128.5" y1="2.18559e-08" x2="128.5" y2="800" stroke="#668FE0"/>
<line x1="96.5" y1="2.18559e-08" x2="96.5" y2="800" stroke="#668FE0"/>
<line x1="64.5" y1="2.18559e-08" x2="64.5" y2="800" stroke="#668FE0"/>
<line x1="32.5" y1="2.18559e-08" x2="32.5" y2="800" stroke="#668FE0"/>
</svg>
