<svg width="16" height="16" viewBox="0 0 16 16" fill="none" xmlns="http://www.w3.org/2000/svg">
<g id="check_small">
<mask id="mask0_718_30" style="mask-type:alpha" maskUnits="userSpaceOnUse" x="0" y="0" width="16" height="16">
<rect id="Bounding box" width="16" height="16" fill="#D9D9D9"/>
</mask>
<g mask="url(#mask0_718_30)">
<path id="check_small_2" d="M8.33329 11.6042L13.4166 6.52082C13.5694 6.36805 13.7465 6.29166 13.9479 6.29166C14.1493 6.29166 14.3263 6.36805 14.4791 6.52082C14.6319 6.6736 14.7083 6.85068 14.7083 7.05207C14.7083 7.25346 14.6319 7.43055 14.4791 7.58332L8.85413 13.2083C8.70135 13.3611 8.52426 13.4375 8.32288 13.4375C8.12149 13.4375 7.9444 13.3611 7.79163 13.2083L5.52079 10.9375C5.36801 10.7847 5.29163 10.6076 5.29163 10.4062C5.29163 10.2049 5.36801 10.0278 5.52079 9.87499C5.67357 9.72221 5.85065 9.64582 6.05204 9.64582C6.25343 9.64582 6.43051 9.72221 6.58329 9.87499L8.33329 11.6042Z" fill="white"/>
</g>
</g>
</svg>
