<svg width="24" height="24" viewBox="0 0 24 24" fill="none" xmlns="http://www.w3.org/2000/svg">
<path d="M4.29382 2.38123H2.60606C2.48189 2.38123 2.38123 2.48189 2.38123 2.60606V21.3932C2.38123 21.5174 2.48189 21.6181 2.60606 21.6181H4.29382C4.41799 21.6181 4.51865 21.5174 4.51865 21.3932V2.60606C4.51865 2.48189 4.41799 2.38123 4.29382 2.38123Z" fill="white"/>
<path d="M8.56884 2.38123H6.88108C6.75691 2.38123 6.65625 2.48189 6.65625 2.60606V21.3932C6.65625 21.5174 6.75691 21.6181 6.88108 21.6181H8.56884C8.69301 21.6181 8.79367 21.5174 8.79367 21.3932V2.60606C8.79367 2.48189 8.69301 2.38123 8.56884 2.38123Z" fill="white"/>
<path d="M12.8439 2.38123H11.1561C11.0319 2.38123 10.9313 2.48189 10.9313 2.60606V21.3932C10.9313 21.5174 11.0319 21.6181 11.1561 21.6181H12.8439C12.968 21.6181 13.0687 21.5174 13.0687 21.3932V2.60606C13.0687 2.48189 12.968 2.38123 12.8439 2.38123Z" fill="white"/>
<path d="M17.1179 2.38123H15.4302C15.306 2.38123 15.2053 2.48189 15.2053 2.60606V21.3932C15.2053 21.5174 15.306 21.6181 15.4302 21.6181H17.1179C17.2421 21.6181 17.3427 21.5174 17.3427 21.3932V2.60606C17.3427 2.48189 17.2421 2.38123 17.1179 2.38123Z" fill="white"/>
<path d="M21.3938 9.86279H19.706C19.5819 9.86279 19.4812 9.96345 19.4812 10.0876V13.9128C19.4812 14.037 19.5819 14.1377 19.706 14.1377H21.3938C21.518 14.1377 21.6186 14.037 21.6186 13.9128V10.0876C21.6186 9.96345 21.518 9.86279 21.3938 9.86279Z" fill="white"/>
</svg>
