<svg width="24" height="24" viewBox="0 0 24 24" fill="none" xmlns="http://www.w3.org/2000/svg">
<g clip-path="url(#clip0_747_199)">
<g filter="url(#filter0_dd_747_199)">
<path d="M23.0291 10.3955C22.47 10.019 21.0013 9.8583 19.9337 10.1462C19.8764 9.0824 19.3275 8.18578 18.3243 7.40344L17.953 7.15418L17.7055 7.52823C17.219 8.26683 17.0139 9.25128 17.0865 10.1462C17.1438 10.6976 17.3353 11.3172 17.7055 11.7669C16.3158 12.5733 15.0346 12.3902 9.36122 12.3902H0.601915C0.576487 13.6717 0.782281 16.1364 2.3493 18.1429C2.52255 18.3647 2.71207 18.579 2.9182 18.7856C4.19229 20.0617 6.11733 20.9976 8.99574 21C13.3873 21.0041 17.1495 18.6296 19.4384 12.889C20.1914 12.9012 22.1795 13.024 23.1525 11.1436C23.1762 11.112 23.4 10.6451 23.4 10.6451L23.0291 10.3958V10.3955ZM6.31838 9.22382H3.85529V11.6875H6.31838V9.22382ZM9.50022 9.22382H7.03714V11.6875H9.50022V9.22382ZM12.6824 9.22382H10.2193V11.6875H12.6824V9.22382ZM15.8646 9.22382H13.4015V11.6875H15.8646V9.22382ZM3.1362 9.22382H0.673112V11.6875H3.1362V9.22382ZM6.31838 6.11208H3.85529V8.57576H6.31838V6.11208ZM9.50022 6.11208H7.03714V8.57576H9.50022V6.11208ZM12.6824 6.11208H10.2193V8.57576H12.6824V6.11208ZM12.6824 3H10.2193V5.46369H12.6824V3Z" fill="white"/>
</g>
</g>
<defs>
<filter id="filter0_dd_747_199" x="-7.40002" y="-1" width="38.8" height="34" filterUnits="userSpaceOnUse" color-interpolation-filters="sRGB">
<feFlood flood-opacity="0" result="BackgroundImageFix"/>
<feColorMatrix in="SourceAlpha" type="matrix" values="0 0 0 0 0 0 0 0 0 0 0 0 0 0 0 0 0 0 127 0" result="hardAlpha"/>
<feOffset dy="4"/>
<feGaussianBlur stdDeviation="4"/>
<feComposite in2="hardAlpha" operator="out"/>
<feColorMatrix type="matrix" values="0 0 0 0 0 0 0 0 0 0 0 0 0 0 0 0 0 0 0.32 0"/>
<feBlend mode="normal" in2="BackgroundImageFix" result="effect1_dropShadow_747_199"/>
<feColorMatrix in="SourceAlpha" type="matrix" values="0 0 0 0 0 0 0 0 0 0 0 0 0 0 0 0 0 0 127 0" result="hardAlpha"/>
<feOffset dy="2"/>
<feGaussianBlur stdDeviation="2"/>
<feComposite in2="hardAlpha" operator="out"/>
<feColorMatrix type="matrix" values="0 0 0 0 0 0 0 0 0 0 0 0 0 0 0 0 0 0 0.32 0"/>
<feBlend mode="normal" in2="effect1_dropShadow_747_199" result="effect2_dropShadow_747_199"/>
<feBlend mode="normal" in="SourceGraphic" in2="effect2_dropShadow_747_199" result="shape"/>
</filter>
<clipPath id="clip0_747_199">
<rect width="24" height="24" fill="white"/>
</clipPath>
</defs>
</svg>
