<svg width="24" height="24" viewBox="0 0 24 24" fill="none" xmlns="http://www.w3.org/2000/svg">
<path fill-rule="evenodd" clip-rule="evenodd" d="M16.8842 2.8667H19.4175C21.6707 2.8667 23.5 4.79786 23.5 7.17657V16.5804C23.5 18.9591 21.6707 20.8903 19.4175 20.8903H19.2178C18.0581 20.6988 17.5551 20.3316 17.1666 20.0213L13.9458 17.2256C13.865 17.1569 13.7644 17.1195 13.6607 17.1195C13.5569 17.1195 13.4563 17.1569 13.3755 17.2256L12.3291 18.134L9.38219 15.5759C9.30151 15.5071 9.20094 15.4696 9.09725 15.4696C8.99355 15.4696 8.89298 15.5071 8.8123 15.5759L4.71819 19.378C3.89418 20.0854 3.34919 19.9549 2.99574 19.9138C2.0828 19.1229 1.5 17.9229 1.5 16.5804V7.17657C1.5 4.79786 3.32929 2.8667 5.58291 2.8667H8.11054L8.10593 2.87741L8.02069 3.1397L7.99422 3.22968L7.87947 3.76678L7.86366 3.86107L7.81334 4.399L7.80662 4.5467L7.80557 4.59843L7.81031 4.84515L7.8219 4.98965L7.85023 5.21606L7.88646 5.41966L7.9294 5.60727L7.98513 5.81031L8.12977 6.24033L8.17746 6.36925L8.42934 6.9311L8.51826 7.10369L8.80953 7.63147L8.92098 7.82186L9.32752 8.45381L9.38628 8.53753L9.9152 9.26433L10.0861 9.48796L10.6901 10.2334L10.8142 10.3768L11.312 10.9422L11.5092 11.1578L11.8351 11.4995L11.7697 11.5572L11.7289 11.596C11.6181 11.7051 11.5133 11.8207 11.4149 11.9423C11.3676 12.0011 11.3225 12.0619 11.2799 12.1245C11.2146 12.22 11.1563 12.3206 11.1054 12.4255C11.0794 12.4798 11.056 12.5356 11.0355 12.5926C10.9824 12.7382 10.9505 12.8913 10.9409 13.047L10.9391 13.1813C10.9437 13.3707 10.9802 13.5578 11.0469 13.7337C11.1146 13.9121 11.2133 14.0755 11.338 14.2155C11.4286 14.3174 11.5318 14.4061 11.6448 14.4791C11.7411 14.5413 11.8437 14.5926 11.9503 14.6316C12.1821 14.7146 12.4281 14.7441 12.6717 14.7182H12.673C12.8808 14.6969 13.0828 14.6336 13.2679 14.5317C13.3478 14.4871 13.4238 14.4352 13.495 14.3765C13.6991 14.2088 13.8573 13.9867 13.9533 13.7332C14.0283 13.5354 14.065 13.3241 14.0617 13.1114L14.0559 13.0002C14.0422 12.8534 14.009 12.7093 13.9573 12.5722C13.9349 12.5125 13.9093 12.4542 13.8809 12.3974C13.8282 12.2928 13.7681 12.1925 13.7014 12.0972C13.6709 12.0537 13.6393 12.011 13.6066 11.9692C13.4978 11.8321 13.3807 11.7026 13.256 11.5816L13.1679 11.5024L13.3172 11.3468L13.9586 10.6396L14.1804 10.3825L14.5253 9.9729L14.7497 9.69587L15.0695 9.28463L15.2861 8.99717L15.6041 8.54824L15.7647 8.31599L15.9925 7.95649L16.1822 7.65011L16.5396 6.99299L16.744 6.56186L16.75 6.54865L16.9065 6.14868C16.9084 6.14353 16.9103 6.13825 16.9117 6.13282L17.0803 5.57779L17.098 5.49685L17.1711 5.05501L17.1853 4.93541L17.1897 4.86212L17.1947 4.5855L17.1934 4.5339L17.1799 4.28622L17.1633 4.09388L17.0803 3.53912C17.0791 3.53166 17.0775 3.52428 17.0755 3.517L16.9689 3.10688L16.9321 2.99284L16.8842 2.8667ZM18.0884 14.5935C17.5605 14.6012 17.1284 15.0574 17.1211 15.6145C17.1288 16.1717 17.5607 16.6275 18.0884 16.6355C18.616 16.6274 19.048 16.1717 19.056 15.6145C19.0484 15.0574 18.6163 14.6012 18.0884 14.5935Z" fill="url(#paint0_radial_747_204)"/>
<path fill-rule="evenodd" clip-rule="evenodd" d="M16.184 20.8903H11.2095C10.9544 20.8903 10.919 20.6352 11.083 20.4903C13.5109 18.343 13.5051 18.3359 13.5051 18.3359C13.5532 18.2934 13.6139 18.27 13.6766 18.2699C13.7393 18.2697 13.8001 18.2928 13.8484 18.3351C13.8484 18.3351 16.1302 20.3309 16.3104 20.4903C16.4744 20.6352 16.439 20.8903 16.184 20.8903ZM12.514 12.3256L12.5397 12.3335C12.548 12.3377 12.555 12.344 12.5625 12.3494L12.584 12.3694C12.637 12.4209 12.6885 12.475 12.738 12.5303C12.7729 12.5697 12.8069 12.6101 12.8396 12.652C12.8811 12.7049 12.9199 12.7603 12.9554 12.8181C12.9706 12.8435 12.9849 12.8692 12.9982 12.8961C13.0098 12.9193 13.0202 12.9434 13.0293 12.9677C13.0453 13.0101 13.0575 13.0549 13.0611 13.1004L13.0604 13.1858C13.055 13.2629 13.0324 13.3376 12.9943 13.4036C12.9562 13.4697 12.9038 13.5252 12.8414 13.5657C12.7604 13.6174 12.6694 13.649 12.5752 13.6582L12.4752 13.6613L12.3907 13.6535C12.3513 13.6473 12.3124 13.6373 12.2747 13.6237C12.2363 13.6099 12.1994 13.5917 12.1648 13.5693L12.0989 13.5184C12.0213 13.4484 11.9684 13.3527 11.9489 13.247C11.9456 13.2291 11.943 13.2112 11.9411 13.1931L11.9387 13.1116C11.9401 13.0897 11.9432 13.0678 11.9478 13.046C11.9593 12.9986 11.9759 12.9524 11.9968 12.9086C12.0239 12.8535 12.0547 12.8007 12.0891 12.7505C12.1461 12.669 12.208 12.5915 12.2742 12.5182C12.3168 12.4707 12.3604 12.4246 12.406 12.3801L12.4384 12.3494C12.461 12.3335 12.4612 12.3335 12.4869 12.3256H12.514ZM12.3482 0.967387L12.3586 0.966553V10.4908L12.3361 10.447C12.0391 9.86703 11.7627 9.27561 11.5073 8.67397C11.3001 8.18702 11.1125 7.69106 10.9449 7.18742C10.811 6.78617 10.6978 6.37753 10.6058 5.9633C10.5346 5.63439 10.4799 5.30062 10.4575 4.96337C10.4489 4.81948 10.4463 4.67526 10.4497 4.53113C10.4518 4.40555 10.4567 4.28024 10.4641 4.15494C10.4759 3.95773 10.4949 3.76108 10.5223 3.56596C10.5441 3.41243 10.5708 3.25931 10.604 3.108C10.6303 2.9877 10.6608 2.86837 10.6957 2.751C10.746 2.58133 10.8063 2.41555 10.8766 2.25367C10.9022 2.1954 10.9299 2.13741 10.9588 2.08053C11.1329 1.73994 11.3693 1.42633 11.6788 1.21633C11.88 1.07826 12.1095 0.992909 12.3482 0.967387ZM13.518 0.991447L14.1249 1.17419C14.4072 1.28299 14.676 1.42757 14.9253 1.60476C15.2642 1.8463 15.5564 2.15392 15.786 2.5111C15.9208 2.72338 16.0326 2.95093 16.1194 3.18949C16.2457 3.54216 16.3238 3.912 16.3514 4.28789C16.3594 4.38635 16.364 4.4851 16.3659 4.5837C16.368 4.67535 16.3675 4.76741 16.3605 4.85906C16.3433 5.06413 16.3067 5.26688 16.2514 5.46431C16.207 5.62595 16.1545 5.78499 16.0941 5.94077C16.0192 6.13447 15.9359 6.32446 15.8445 6.51014C15.6421 6.92263 15.4092 7.31718 15.1601 7.69879C14.8512 8.16781 14.5219 8.62149 14.1733 9.05837C13.7946 9.53501 13.3997 9.99704 12.9893 10.4435C13.2679 9.89241 13.5278 9.33104 13.7686 8.76047C13.9025 8.4426 14.0288 8.12124 14.1474 7.7967C14.278 7.44031 14.3957 7.07884 14.5004 6.71304C14.5786 6.43901 14.6463 6.16175 14.7032 5.88194C14.7517 5.64176 14.7898 5.39908 14.8134 5.15487C14.8331 4.95127 14.8404 4.74641 14.8356 4.54212C14.8338 4.4171 14.8294 4.29213 14.8225 4.16731C14.794 3.66498 14.7217 3.16432 14.583 2.68257C14.5304 2.4999 14.4664 2.32108 14.3916 2.14728C14.214 1.73882 13.966 1.35693 13.6306 1.07837L13.518 0.991447Z" fill="white"/>
<defs>
<radialGradient id="paint0_radial_747_204" cx="0" cy="0" r="1" gradientUnits="userSpaceOnUse" gradientTransform="translate(12.4999 11.8783) scale(15.0078 16.9624)">
<stop stop-color="#BA7BF0"/>
<stop offset="0.43" stop-color="#996BEC"/>
<stop offset="1" stop-color="#5046E4"/>
</radialGradient>
</defs>
</svg>
