<svg width="24" height="24" viewBox="0 0 24 24" fill="none" xmlns="http://www.w3.org/2000/svg">
<path d="M14.9171 7.19084H15.5763L17.4553 5.31187L17.5474 4.51382C14.0503 1.42675 8.71311 1.76025 5.62604 5.25737C4.76831 6.22799 4.14674 7.38418 3.80676 8.6351C4.01568 8.54946 4.24796 8.53518 4.46596 8.59617L8.2239 7.97591C8.2239 7.97591 8.41466 7.65928 8.51457 7.67875C10.1859 5.8426 12.9992 5.62849 14.9301 7.19084H14.9171Z" fill="#EA4335"/>
<path d="M20.1329 8.63498C19.7008 7.04408 18.8145 5.61409 17.5817 4.52148L14.9449 7.15827C16.0583 8.06791 16.6928 9.43951 16.6656 10.8773V11.3457C17.9619 11.3457 19.013 12.3968 19.013 13.6931C19.013 14.9895 17.9619 16.0406 16.6656 16.0406H11.9708L11.5023 16.5155V19.3314L11.9708 19.7998H16.6656C20.0368 19.8258 22.7917 17.1137 22.8177 13.7425C22.8332 11.6948 21.825 9.77949 20.1329 8.63498Z" fill="#4285F4"/>
<path d="M7.26841 19.7702H11.9632V16.0123H7.26841C6.93362 16.0123 6.60402 15.9396 6.29907 15.8008L5.63988 16.0058L3.74793 17.8848L3.58313 18.544C4.6433 19.3459 5.93833 19.7767 7.26841 19.7702Z" fill="#34A853"/>
<path d="M7.26908 7.58001C3.89654 7.59947 1.18059 10.3492 1.20006 13.7217C1.21173 15.6046 2.09023 17.3771 3.58381 18.5242L6.30624 15.8018C5.12539 15.2685 4.59985 13.8774 5.13318 12.6966C5.66651 11.5157 7.05757 10.9902 8.23841 11.5235C8.75876 11.7584 9.1753 12.1762 9.41147 12.6966L12.1339 9.97414C10.9764 8.4585 9.1753 7.57222 7.26908 7.58001Z" fill="#FBBC05"/>
</svg>
