<svg width="43" height="16" viewBox="0 0 43 16" fill="none" xmlns="http://www.w3.org/2000/svg">
<g clip-path="url(#clip0_747_151)">
<path d="M3.4115 4.83776C3.32776 4.83776 3.30682 4.79604 3.34869 4.73345L3.78832 4.17022C3.83019 4.10764 3.93487 4.06592 4.01861 4.06592H11.4923C11.5761 4.06592 11.597 4.1285 11.5551 4.19108L11.1992 4.73345C11.1574 4.79604 11.0527 4.85862 10.9899 4.85862L3.4115 4.83776Z" fill="#00ACD7"/>
<path d="M0.250365 6.75609C0.166626 6.75609 0.145691 6.71437 0.187561 6.65179L0.627191 6.08856C0.66906 6.02597 0.773734 5.98425 0.857473 5.98425H10.4037C10.4875 5.98425 10.5293 6.04683 10.5084 6.10942L10.3409 6.61007C10.32 6.69351 10.2362 6.73523 10.1525 6.73523L0.250365 6.75609Z" fill="#00ACD7"/>
<path d="M5.31653 8.67443C5.23279 8.67443 5.21185 8.61184 5.25372 8.54926L5.54681 8.02775C5.58868 7.96517 5.67242 7.90259 5.75616 7.90259H9.94311C10.0268 7.90259 10.0687 7.96517 10.0687 8.04861L10.0268 8.54926C10.0268 8.6327 9.94311 8.69529 9.88031 8.69529L5.31653 8.67443Z" fill="#00ACD7"/>
<path d="M27.0469 4.4621C25.728 4.79572 24.8278 5.04594 23.5298 5.37955C23.2158 5.46296 23.1949 5.48381 22.9227 5.17104C22.6087 4.81657 22.3784 4.58721 21.9388 4.3787C20.6199 3.73231 19.3429 3.91997 18.1496 4.69147C16.7261 5.60892 15.9933 6.96424 16.0143 8.65319C16.0352 10.3213 17.1866 11.6975 18.8405 11.9268C20.264 12.1145 21.4573 11.6141 22.3994 10.5506C22.5878 10.3213 22.7553 10.0711 22.9646 9.77915C22.211 9.77915 21.2689 9.77915 18.9242 9.77915C18.4846 9.77915 18.3799 9.50809 18.5264 9.15362C18.7986 8.50723 19.301 7.42297 19.5941 6.88084C19.6569 6.75573 19.8035 6.54722 20.1175 6.54722C21.1852 6.54722 25.1209 6.54722 27.7377 6.54722C27.6959 7.1102 27.6959 7.67318 27.6121 8.23616C27.3818 9.73745 26.8166 11.1136 25.8955 12.323C24.3882 14.3039 22.4203 15.5341 19.9291 15.8677C17.8775 16.1388 15.9724 15.7426 14.2976 14.4915C12.7484 13.3238 11.8692 11.7809 11.6389 9.86256C11.3668 7.58978 12.0367 5.54636 13.4184 3.75316C14.9047 1.81401 16.8726 0.583788 19.2801 0.145914C21.248 -0.208556 23.1321 0.0208065 24.8278 1.16762C25.9373 1.89741 26.7329 2.89827 27.2562 4.10763C27.3818 4.29529 27.2981 4.39955 27.0469 4.4621Z" fill="#00ACD7"/>
<path d="M33.9763 15.9928C32.0712 15.9511 30.3337 15.409 28.8682 14.1579C27.6331 13.0945 26.8585 11.7392 26.6073 10.1337C26.2304 7.77748 26.8794 5.69236 28.303 3.83661C29.8312 1.83489 31.6735 0.792336 34.1647 0.354462C36.3001 -0.0208589 38.3098 0.187653 40.1311 1.41787C41.785 2.54383 42.8108 4.06597 43.0829 6.06768C43.4388 8.88259 42.6224 11.1762 40.6754 13.1362C39.2937 14.5333 37.598 15.409 35.6511 15.8052C35.0858 15.9094 34.5206 15.9303 33.9763 15.9928ZM38.9588 7.56896C38.9378 7.2979 38.9378 7.08939 38.896 6.88088C38.5191 4.81661 36.6141 3.64895 34.6253 4.10767C32.6783 4.54555 31.4223 5.77576 30.9617 7.73577C30.5849 9.36216 31.3804 11.0094 32.8877 11.6766C34.0391 12.1771 35.1905 12.1145 36.3001 11.5515C37.9539 10.6966 38.8541 9.36216 38.9588 7.56896Z" fill="#00ACD7"/>
</g>
<defs>
<clipPath id="clip0_747_151">
<rect width="43" height="16" fill="white"/>
</clipPath>
</defs>
</svg>
