<svg width="24" height="24" viewBox="0 0 24 24" fill="none" xmlns="http://www.w3.org/2000/svg">
<g clip-path="url(#clip0_747_198)">
<g filter="url(#filter0_dd_747_198)">
<path d="M21.2805 6.00391C21.1547 5.59506 20.8527 5.26287 20.4752 5.05845L12.8001 1.32772C12.5988 1.2255 12.3723 1.19995 12.171 1.19995C11.9697 1.19995 11.7432 1.19995 11.5419 1.25106L3.86673 5.00734C3.48927 5.18621 3.21246 5.5184 3.1118 5.9528L1.22447 14.3597C1.14898 14.7941 1.24963 15.2285 1.50128 15.5863L6.81097 22.2556C7.11294 22.5622 7.54073 22.7667 7.96853 22.7922H16.4238C16.8767 22.8433 17.3045 22.6389 17.5813 22.2556L22.891 15.5863C23.1427 15.2285 23.2433 14.7941 23.193 14.3597L21.2805 6.00391Z" fill="#326DE6"/>
</g>
<path d="M20.0975 14.0278C20.0724 14.0278 20.0472 14.0278 20.0472 14.0022C20.0472 13.9767 19.9969 13.9767 19.9465 13.9767C19.8459 13.9511 19.7452 13.9511 19.6446 13.9511C19.5942 13.9511 19.5439 13.9511 19.4936 13.9255H19.4684C19.1916 13.9 18.8896 13.8489 18.6128 13.7722C18.5373 13.7467 18.4618 13.67 18.4367 13.5934L18.2354 13.5423C18.336 12.8012 18.2857 12.0346 18.1347 11.2936C17.9586 10.5526 17.6566 9.83707 17.254 9.19825L17.4049 9.04493V9.01938C17.4049 8.94272 17.4301 8.84051 17.4804 8.7894C17.7069 8.58498 17.9334 8.43166 18.185 8.27834C18.2354 8.25279 18.2857 8.22724 18.336 8.20168C18.4367 8.15058 18.5122 8.09947 18.6128 8.04837C18.638 8.02281 18.6632 8.02281 18.6883 7.99726C18.7135 7.97171 18.6883 7.97171 18.6883 7.94616C18.9148 7.76728 18.9651 7.46065 18.789 7.23067C18.7135 7.12846 18.5625 7.0518 18.4367 7.0518C18.3109 7.0518 18.185 7.10291 18.0844 7.17957L18.0592 7.20512C18.0341 7.23067 18.0089 7.25623 17.9837 7.25623C17.9082 7.33288 17.8327 7.40954 17.7824 7.4862C17.7572 7.53731 17.7069 7.56286 17.6817 7.58841C17.5056 7.79284 17.2791 7.99726 17.0526 8.15058C17.0023 8.17613 16.952 8.20168 16.9017 8.20168C16.8765 8.20168 16.8262 8.20168 16.801 8.17613H16.7758L16.5745 8.3039C16.3732 8.09947 16.1467 7.89505 15.9454 7.69063C15.0143 6.94959 13.8568 6.48964 12.674 6.36187L12.6489 6.15745V6.183C12.5734 6.13189 12.5482 6.05524 12.523 5.97858C12.523 5.69749 12.523 5.41641 12.5734 5.10978V5.08422C12.5734 5.03312 12.5985 4.98201 12.5985 4.93091C12.6237 4.82869 12.6237 4.72648 12.6489 4.62427V4.47095C12.674 4.21542 12.4727 3.95989 12.2211 3.93434C12.0701 3.90879 11.9191 3.98545 11.7933 4.11321C11.6926 4.21542 11.6423 4.34319 11.6423 4.47095V4.59872C11.6423 4.70093 11.6675 4.80314 11.6926 4.90535C11.7178 4.95646 11.7178 5.00756 11.7178 5.05867V5.08422C11.7681 5.36531 11.7681 5.64639 11.7681 5.95302C11.743 6.02968 11.7178 6.10634 11.6423 6.15745V6.20855L11.6171 6.41298C11.3403 6.43853 11.0635 6.48964 10.7615 6.54074C9.57881 6.79627 8.49675 7.4351 7.66632 8.32945L7.51533 8.22724H7.49017C7.46501 8.22724 7.43984 8.25279 7.38951 8.25279C7.33918 8.25279 7.28885 8.22724 7.23853 8.20168C7.01205 8.02281 6.78557 7.81839 6.60942 7.61397C6.58425 7.56286 6.53392 7.53731 6.50876 7.51176C6.43327 7.4351 6.38294 7.35844 6.30744 7.28178C6.28228 7.25622 6.25711 7.25623 6.23195 7.23067C6.20679 7.20512 6.20679 7.20512 6.20679 7.20512C6.10613 7.12846 5.98031 7.07735 5.85448 7.07735C5.7035 7.07735 5.57768 7.12846 5.50218 7.25623C5.3512 7.4862 5.40153 7.79284 5.60284 7.97171C5.628 7.97171 5.62801 7.99726 5.62801 7.99726C5.62801 7.99726 5.67833 8.04837 5.7035 8.04837C5.77899 8.09947 5.87965 8.15058 5.98031 8.20168C6.03064 8.22724 6.08096 8.25279 6.13129 8.27834C6.38294 8.43166 6.63458 8.58498 6.8359 8.7894C6.88622 8.84051 6.93655 8.94272 6.91139 9.01938V8.99383L7.06238 9.14714C7.03721 9.19825 7.01205 9.2238 6.98688 9.27491C6.20679 10.527 5.87965 12.0091 6.10613 13.4656L5.90481 13.5167C5.90481 13.5423 5.87965 13.5423 5.87965 13.5423C5.85448 13.6189 5.77899 13.67 5.7035 13.7211C5.42669 13.7978 5.14988 13.8489 4.84791 13.8744C4.79758 13.8744 4.74725 13.8744 4.69692 13.9C4.59626 13.9 4.49561 13.9255 4.39495 13.9255C4.36979 13.9255 4.34462 13.9511 4.29429 13.9511C4.26913 13.9511 4.26913 13.9511 4.24396 13.9767C3.96715 14.0278 3.791 14.2833 3.84133 14.5644C3.89166 14.7944 4.11814 14.9477 4.34462 14.9221C4.39495 14.9221 4.42011 14.9221 4.47044 14.8966C4.49561 14.8966 4.49561 14.8966 4.49561 14.871C4.49561 14.8455 4.5711 14.871 4.59626 14.871C4.69692 14.8455 4.79758 14.7944 4.87307 14.7688C4.9234 14.7432 4.97373 14.7177 5.02406 14.7177H5.04922C5.32603 14.6155 5.57768 14.5388 5.87965 14.4877H5.90481C5.98031 14.4877 6.0558 14.5133 6.10613 14.5644C6.13129 14.5644 6.13129 14.5899 6.13129 14.5899L6.35777 14.5644C6.73524 15.7398 7.43984 16.7875 8.42125 17.5541C8.64773 17.7329 8.84905 17.8863 9.10069 18.014L8.97487 18.1929C8.97487 18.2184 9.00003 18.2184 9.00003 18.2184C9.05036 18.2951 9.05036 18.3973 9.0252 18.474C8.92454 18.7295 8.77355 18.985 8.62257 19.215V19.2406C8.5974 19.2917 8.57224 19.3172 8.52191 19.3683C8.47158 19.4194 8.42125 19.5216 8.34576 19.6239C8.32059 19.6494 8.32059 19.675 8.29543 19.7005C8.29543 19.7005 8.29543 19.7261 8.27027 19.7261C8.14444 19.9816 8.2451 20.2882 8.47158 20.416C8.52191 20.4416 8.5974 20.4671 8.64773 20.4671C8.84905 20.4671 9.0252 20.3393 9.12586 20.1605C9.12586 20.1605 9.12586 20.1349 9.15102 20.1349C9.15102 20.1094 9.17618 20.0838 9.20135 20.0583C9.22651 19.9561 9.27684 19.8794 9.30201 19.7772L9.35233 19.6239C9.42783 19.3428 9.55365 19.0872 9.67947 18.8317C9.7298 18.7551 9.80529 18.704 9.88079 18.6784C9.90595 18.6784 9.90595 18.6784 9.90595 18.6528L10.0066 18.4484C10.7112 18.7295 11.441 18.8573 12.1959 18.8573C12.6489 18.8573 13.1018 18.8062 13.5548 18.6784C13.8316 18.6273 14.1084 18.5251 14.36 18.4484L14.4607 18.6273C14.4859 18.6273 14.4859 18.6273 14.4859 18.6528C14.5614 18.6784 14.6369 18.7295 14.6872 18.8062C14.813 19.0617 14.9388 19.3172 15.0143 19.5983V19.6239L15.0647 19.7772C15.0898 19.8794 15.115 19.9816 15.1653 20.0583C15.1905 20.0838 15.1905 20.1094 15.2156 20.1349C15.2156 20.1349 15.2156 20.1605 15.2408 20.1605C15.3415 20.3393 15.5176 20.4671 15.7189 20.4671C15.7944 20.4671 15.8447 20.4416 15.9202 20.416C16.0209 20.3649 16.1216 20.2627 16.1467 20.1349C16.1719 20.0072 16.1719 19.8794 16.1216 19.7516C16.1216 19.7261 16.0964 19.7261 16.0964 19.7261C16.0964 19.7005 16.0712 19.675 16.0461 19.6494C15.9957 19.5472 15.9454 19.4705 15.8699 19.3939C15.8447 19.3428 15.8196 19.3172 15.7693 19.2661V19.215C15.5931 18.985 15.4673 18.7295 15.3666 18.474C15.3415 18.3973 15.3415 18.2951 15.3918 18.2184C15.3918 18.1929 15.417 18.1929 15.417 18.1929L15.3415 17.9885C16.6248 17.1963 17.6063 15.9698 18.0592 14.5133L18.2605 14.5388C18.2857 14.5388 18.2857 14.5133 18.2857 14.5133C18.336 14.4622 18.4115 14.4366 18.487 14.4366H18.5122C18.789 14.4877 19.0658 14.5644 19.3174 14.6666H19.3426C19.3929 14.6921 19.4433 14.7177 19.4936 14.7177C19.5942 14.7688 19.6697 14.8199 19.7704 14.8455C19.7956 14.8455 19.8207 14.871 19.8711 14.871C19.8962 14.871 19.8962 14.871 19.9214 14.8966C19.9717 14.9221 19.9969 14.9221 20.0472 14.9221C20.2737 14.9221 20.475 14.7688 20.5505 14.5644C20.5253 14.2833 20.324 14.0789 20.0975 14.0278ZM12.825 13.2356L12.1456 13.5678L11.4661 13.2356L11.29 12.4946L11.7681 11.8813H12.523L13.0012 12.4946L12.825 13.2356ZM16.9268 11.5747C17.0526 12.1113 17.0778 12.6479 17.0275 13.1845L14.6369 12.4946C14.4104 12.4435 14.2846 12.2135 14.3349 11.9835C14.36 11.9069 14.3852 11.8558 14.4355 11.8047L16.3229 10.0671C16.5997 10.527 16.801 11.0381 16.9268 11.5747ZM15.5679 9.12159L13.5045 10.6037C13.3283 10.7059 13.0767 10.6803 12.9508 10.5015C12.9005 10.4503 12.8753 10.3992 12.8753 10.3226L12.7244 7.74173C13.8316 7.8695 14.813 8.355 15.5679 9.12159ZM11.0132 7.81839L11.5165 7.71618L11.3907 10.2715C11.3907 10.5015 11.1893 10.6803 10.9629 10.6803C10.8874 10.6803 10.837 10.6548 10.7615 10.6292L8.6729 9.12159C9.32717 8.48277 10.1324 8.02281 11.0132 7.81839ZM7.94313 10.0671L9.80529 11.7535C9.98145 11.9069 10.0066 12.1624 9.85562 12.3413C9.80529 12.4179 9.75496 12.4435 9.65431 12.469L7.21336 13.1845C7.13787 12.1113 7.38951 11.0125 7.94313 10.0671ZM7.51533 14.3855L10.0066 13.9511C10.2079 13.9511 10.4092 14.0789 10.4344 14.2833C10.4596 14.36 10.4596 14.4622 10.4092 14.5388L9.45299 16.8897C8.57224 16.302 7.86764 15.4076 7.51533 14.3855ZM13.2277 17.5541C12.8753 17.6307 12.523 17.6818 12.1456 17.6818C11.6171 17.6818 11.0635 17.5796 10.5602 17.4263L11.7933 15.1521C11.9191 14.9988 12.1204 14.9477 12.2966 15.0499C12.3721 15.101 12.4224 15.1521 12.4979 15.2288L13.7058 17.4519C13.5548 17.4774 13.4038 17.503 13.2277 17.5541ZM16.2977 15.331C15.9202 15.9442 15.3918 16.4808 14.7878 16.8641L13.8064 14.4622C13.7561 14.2577 13.8568 14.0533 14.0329 13.9767C14.1084 13.9511 14.1839 13.9255 14.2594 13.9255L16.7758 14.36C16.65 14.7177 16.499 15.0499 16.2977 15.331Z" fill="white"/>
</g>
<defs>
<filter id="filter0_dd_747_198" x="-2.80005" y="-0.800049" width="30.0056" height="29.6" filterUnits="userSpaceOnUse" color-interpolation-filters="sRGB">
<feFlood flood-opacity="0" result="BackgroundImageFix"/>
<feColorMatrix in="SourceAlpha" type="matrix" values="0 0 0 0 0 0 0 0 0 0 0 0 0 0 0 0 0 0 127 0" result="hardAlpha"/>
<feOffset dy="2"/>
<feGaussianBlur stdDeviation="2"/>
<feComposite in2="hardAlpha" operator="out"/>
<feColorMatrix type="matrix" values="0 0 0 0 0 0 0 0 0 0 0 0 0 0 0 0 0 0 0.32 0"/>
<feBlend mode="normal" in2="BackgroundImageFix" result="effect1_dropShadow_747_198"/>
<feColorMatrix in="SourceAlpha" type="matrix" values="0 0 0 0 0 0 0 0 0 0 0 0 0 0 0 0 0 0 127 0" result="hardAlpha"/>
<feOffset dy="1"/>
<feGaussianBlur stdDeviation="1"/>
<feComposite in2="hardAlpha" operator="out"/>
<feColorMatrix type="matrix" values="0 0 0 0 0 0 0 0 0 0 0 0 0 0 0 0 0 0 0.32 0"/>
<feBlend mode="normal" in2="effect1_dropShadow_747_198" result="effect2_dropShadow_747_198"/>
<feBlend mode="normal" in="SourceGraphic" in2="effect2_dropShadow_747_198" result="shape"/>
</filter>
<clipPath id="clip0_747_198">
<rect width="24" height="24" fill="white"/>
</clipPath>
</defs>
</svg>
