<svg width="24" height="24" viewBox="0 0 24 24" fill="none" xmlns="http://www.w3.org/2000/svg">
<g clip-path="url(#clip0_1525_221)">
<path d="M17.6317 17.0154C17.7716 15.8496 17.7297 15.6787 18.598 15.8675L18.8184 15.8869C19.4861 15.9173 20.3595 15.7795 20.8727 15.5411C21.9772 15.0286 22.6322 14.1728 21.5431 14.3977C19.0586 14.9102 18.8878 14.069 18.8878 14.069C21.5112 10.1764 22.6079 5.23524 21.6613 4.02574C19.0794 0.726648 14.6102 2.28671 14.5354 2.32722L14.5116 2.33161C14.0207 2.22976 13.4713 2.1689 12.8542 2.15893C11.7299 2.14045 10.8767 2.45367 10.2296 2.94451C10.2296 2.94451 2.25675 -0.3402 2.62766 7.07538C2.70655 8.65288 4.88885 19.0121 7.49166 15.8831C8.44297 14.739 9.36232 13.7716 9.36232 13.7716C9.81884 14.0748 10.3654 14.2296 10.9386 14.174L10.9829 14.1362C10.9691 14.2783 10.9752 14.4172 11.0007 14.5817C10.3303 15.3309 10.5273 15.4624 9.18672 15.7383C7.83046 16.0179 8.62726 16.5155 9.14735 16.6456C9.77804 16.8033 11.237 17.0267 12.2231 15.6466L12.1839 15.8041C12.4469 16.0145 12.4291 17.3165 12.4664 18.2468C12.5037 19.1771 12.566 20.0453 12.7557 20.5571C12.9453 21.0688 13.1691 22.3872 14.9308 22.0096C16.4033 21.6941 17.5291 21.24 17.6317 17.0154Z" fill="black" stroke="black" stroke-width="1.84717"/>
<path d="M21.5433 14.3975C19.0586 14.9101 18.8878 14.0688 18.8878 14.0688C21.5112 10.176 22.6079 5.23474 21.6615 4.02539C19.0796 0.726498 14.6102 2.28666 14.5356 2.32717L14.5116 2.33146C14.0207 2.22956 13.4713 2.16885 12.8539 2.15878C11.7296 2.14035 10.8767 2.45352 10.2296 2.94427C10.2296 2.94427 2.2566 -0.340301 2.62741 7.07523C2.7063 8.65283 4.88855 19.012 7.49146 15.8831C8.44282 14.7389 9.36202 13.7715 9.36202 13.7715C9.81859 14.0748 10.3651 14.2295 10.9381 14.1739L10.9826 14.1361C10.9688 14.2782 10.9751 14.4172 11.0005 14.5816C10.3299 15.3308 10.527 15.4624 9.18652 15.7383C7.83016 16.0178 8.62696 16.5155 9.1472 16.6455C9.77788 16.8033 11.237 17.0267 12.2229 15.6466L12.1836 15.804C12.4463 16.0145 12.6308 17.1728 12.5999 18.2229C12.5689 19.273 12.5483 19.9939 12.7553 20.557C12.9623 21.1202 13.1687 22.3872 14.9308 22.0096C16.4032 21.694 17.1662 20.8763 17.2724 19.5124C17.3477 18.5427 17.5182 18.686 17.529 17.8191L17.6657 17.4087C17.8234 16.0942 17.6907 15.6701 18.5979 15.8674L18.8183 15.8867C19.486 15.9171 20.3599 15.7793 20.8728 15.541C21.9771 15.0284 22.6321 14.1727 21.5432 14.3975H21.5433Z" fill="#336791"/>
<path d="M12.3296 15.151C12.2611 17.5969 12.3467 20.0598 12.5861 20.6584C12.8255 21.257 13.338 22.4212 15.1003 22.0437C16.5726 21.728 17.1083 21.1172 17.3408 19.769C17.512 18.777 17.842 16.0221 17.8844 15.4576" stroke="white" stroke-width="0.615722" stroke-linecap="round" stroke-linejoin="round"/>
<path d="M10.2172 2.88969C10.2172 2.88969 2.2388 -0.371219 2.60971 7.04431C2.6886 8.62191 4.871 18.9815 7.47385 15.8524C8.42502 14.708 9.28524 13.8106 9.28524 13.8106" stroke="white" stroke-width="0.615722" stroke-linecap="round" stroke-linejoin="round"/>
<path d="M14.5269 2.29444C14.2507 2.38103 18.965 0.571076 21.6442 3.99449C22.5905 5.2039 21.4938 10.1452 18.8704 14.0381" stroke="white" stroke-width="0.615722" stroke-linecap="round" stroke-linejoin="round"/>
<path d="M18.8703 14.0383C18.8703 14.0383 19.0412 14.8798 21.526 14.3669C22.6147 14.142 21.9595 14.9979 20.8554 15.5106C19.9492 15.9312 17.9176 16.039 17.8844 15.4578C17.799 13.9584 18.9536 14.414 18.8703 14.0383ZM18.8703 14.0383C18.795 13.6999 18.2786 13.3678 17.9371 12.5397C17.6389 11.8169 13.8473 6.2739 18.9885 7.09713C19.1769 7.05815 17.6476 2.20685 12.8362 2.12797C8.02576 2.04908 8.18358 8.0437 8.18358 8.0437" stroke="white" stroke-width="0.615722" stroke-linecap="round" stroke-linejoin="bevel"/>
<path d="M10.9829 14.5509C10.3123 15.3001 10.5095 15.4316 9.16898 15.7076C7.81263 15.9872 8.60953 16.4848 9.12961 16.6148C9.7603 16.7726 11.2194 16.996 12.2053 15.6155C12.5055 15.1952 12.2035 14.5246 11.7911 14.3536C11.5918 14.2711 11.3254 14.1677 10.9829 14.5509Z" stroke="white" stroke-width="0.615722" stroke-linecap="round" stroke-linejoin="round"/>
<path d="M10.939 14.5378C10.8714 14.0974 11.0837 13.5732 11.3112 12.9601C11.6531 12.04 12.442 11.1198 11.811 8.20132C11.3406 6.02648 8.18551 7.74871 8.18354 8.0436C8.18161 8.33839 8.32624 9.53831 8.13083 10.9356C7.87585 12.759 9.29104 14.301 10.9206 14.1433" stroke="white" stroke-width="0.615722" stroke-linecap="round" stroke-linejoin="round"/>
<path d="M10.1882 7.99941C10.174 8.10013 10.3726 8.36889 10.6316 8.4048C10.8901 8.44086 11.1114 8.23083 11.1255 8.13021C11.1395 8.0295 10.9411 7.91855 10.682 7.88249C10.4233 7.84638 10.202 7.89894 10.1883 7.99941H10.1882Z" fill="white" stroke="white" stroke-width="0.205239"/>
<path d="M18.0631 7.79407C18.0772 7.89479 17.8788 8.16355 17.6197 8.19946C17.361 8.23552 17.1397 8.02549 17.1255 7.92487C17.1119 7.82415 17.3103 7.71321 17.5691 7.67715C17.8279 7.64109 18.0491 7.6936 18.0631 7.79412V7.79407Z" fill="white" stroke="white" stroke-width="0.10262"/>
<path d="M18.9885 7.09692C19.0311 7.88696 18.8183 8.42507 18.7915 9.26609C18.7518 10.4885 19.3743 11.8877 18.4363 13.2886" stroke="white" stroke-width="0.615722" stroke-linecap="round" stroke-linejoin="round"/>
</g>
<defs>
<clipPath id="clip0_1525_221">
<rect width="21.3424" height="22" fill="white" transform="translate(1.66675 1)"/>
</clipPath>
</defs>
</svg>
