<svg width="24" height="24" viewBox="0 0 24 24" fill="none" xmlns="http://www.w3.org/2000/svg">
<path d="M5.37968 21.3182L0.580255 13.005C0.395729 12.6854 0.298584 12.3229 0.298584 11.9538C0.298584 11.5848 0.395729 11.2222 0.580255 10.9026L5.37968 2.58963C5.56423 2.26998 5.82968 2.00454 6.14934 1.81999C6.469 1.63545 6.83161 1.53831 7.20072 1.53833H16.7996C17.1686 1.53834 17.5312 1.6355 17.8508 1.82004C18.1705 2.00458 18.4359 2.27 18.6204 2.58963L23.4198 10.9026C23.6044 11.2222 23.7016 11.5848 23.7016 11.9539C23.7016 12.323 23.6044 12.6856 23.4198 13.0052L18.6204 21.3182C18.4359 21.6378 18.1704 21.9032 17.8508 22.0877C17.5312 22.2722 17.1686 22.3693 16.7996 22.3693H7.20072C6.83161 22.3693 6.46899 22.2722 6.14933 22.0877C5.82966 21.9031 5.56422 21.6378 5.37968 21.3182Z" fill="url(#paint0_linear_747_195)"/>
<path opacity="0.07" d="M22.4316 14.8025L16.6109 8.9821L15.5398 9.20406L12.8699 6.5343L12.0155 8.1321L11.5522 9.98038L12.3364 10.7647L10.8302 11.0723L8.76485 9.00696L7.3625 10.355L9.94468 12.9376L7.20764 15.1133L14.5563 22.4618L18.1364 22.4271L22.4316 14.8025Z" fill="black"/>
<path d="M15.9345 10.6557C16.4721 10.6557 16.9079 10.2199 16.9079 9.68228C16.9079 9.14468 16.4721 8.70886 15.9345 8.70886C15.3969 8.70886 14.9611 9.14468 14.9611 9.68228C14.9611 10.2199 15.3969 10.6557 15.9345 10.6557Z" fill="white"/>
<path d="M8.06546 10.6557C8.60306 10.6557 9.03887 10.2199 9.03887 9.68228C9.03887 9.14468 8.60306 8.70886 8.06546 8.70886C7.52785 8.70886 7.09204 9.14468 7.09204 9.68228C7.09204 10.2199 7.52785 10.6557 8.06546 10.6557Z" fill="white"/>
<path d="M12.0001 17.4708C12.5378 17.4708 12.9737 17.0349 12.9737 16.4972C12.9737 15.9595 12.5378 15.5236 12.0001 15.5236C11.4624 15.5236 11.0265 15.9595 11.0265 16.4972C11.0265 17.0349 11.4624 17.4708 12.0001 17.4708Z" fill="white"/>
<path d="M12 13.5266C12.8686 13.5266 13.5727 12.8225 13.5727 11.9539C13.5727 11.0852 12.8686 10.3811 12 10.3811C11.1314 10.3811 10.4272 11.0852 10.4272 11.9539C10.4272 12.8225 11.1314 13.5266 12 13.5266Z" fill="white"/>
<path d="M8.06543 15.4609C8.74784 15.4609 9.30103 14.9078 9.30103 14.2253C9.30103 13.5429 8.74784 12.9897 8.06543 12.9897C7.38303 12.9897 6.82983 13.5429 6.82983 14.2253C6.82983 14.9078 7.38303 15.4609 8.06543 15.4609Z" fill="white"/>
<path d="M15.9345 15.4609C16.6169 15.4609 17.1701 14.9078 17.1701 14.2253C17.1701 13.5429 16.6169 12.9897 15.9345 12.9897C15.252 12.9897 14.6989 13.5429 14.6989 14.2253C14.6989 14.9078 15.252 15.4609 15.9345 15.4609Z" fill="white"/>
<path d="M12.0001 8.64637C12.6826 8.64637 13.2358 8.09309 13.2358 7.41059C13.2358 6.72808 12.6826 6.1748 12.0001 6.1748C11.3176 6.1748 10.7643 6.72808 10.7643 7.41059C10.7643 8.09309 11.3176 8.64637 12.0001 8.64637Z" fill="white"/>
<defs>
<linearGradient id="paint0_linear_747_195" x1="12.0001" y1="1.53851" x2="12.0001" y2="22.3369" gradientUnits="userSpaceOnUse">
<stop stop-color="#4387FD"/>
<stop offset="1" stop-color="#4683EA"/>
</linearGradient>
</defs>
</svg>
