<svg width="24" height="24" viewBox="0 0 24 24" fill="none" xmlns="http://www.w3.org/2000/svg">
<path d="M20.6886 10.109C20.9465 10.1089 21.1939 10.2104 21.3767 10.391C21.5595 10.5717 21.6628 10.8169 21.6641 11.073V21.1625C21.6641 21.6937 21.2315 22.1273 20.6934 22.1273H3.37159C3.11391 22.1273 2.86679 22.0257 2.68459 21.8447C2.50238 21.6638 2.40002 21.4184 2.40002 21.1625V2.86489C2.40002 2.33441 2.83263 1.90082 3.37238 1.90082H5.47783C6.01199 1.90082 6.44859 2.32965 6.44859 2.86489V9.20126C6.46289 9.42717 6.55569 9.64115 6.71114 9.80669C6.8666 9.97222 7.07508 10.0791 7.30101 10.109H8.8763C9.35368 10.0653 9.7511 9.67933 9.77749 9.20126V2.8641C9.77749 2.33362 10.2093 1.90002 10.7483 1.90002H12.8537C13.3879 1.90002 13.8253 2.32885 13.8253 2.8641V9.13455C13.8253 9.63009 14.1915 10.051 14.6729 10.1082H20.6894L20.6886 10.109ZM17.9162 17.0282V15.054C17.9162 14.5235 17.4844 14.0891 16.9454 14.0891H14.8392C14.305 14.0891 13.8676 14.5188 13.8676 15.054V17.0274C13.8676 17.5579 14.3002 17.9915 14.8392 17.9915H16.9446C17.4788 17.9915 17.9154 17.5627 17.9154 17.0274L17.9162 17.0282Z" fill="#FF6600"/>
</svg>
