<svg width="24" height="24" viewBox="0 0 24 24" fill="none" xmlns="http://www.w3.org/2000/svg">
<path d="M1.30027 10.4427C1.24882 10.8034 1.21534 11.1663 1.19995 11.5303H17.6066C17.5494 11.4184 17.4724 11.3175 17.3948 11.2187C14.5899 7.59499 13.0811 7.90918 10.9228 7.81713C10.2032 7.78753 9.7152 7.77563 6.85092 7.77563C5.31789 7.77563 3.65126 7.77954 2.0283 7.78386C1.81821 8.35095 1.61558 8.90061 1.51693 9.34775H9.92428V10.4427H1.30027ZM17.736 12.6264H1.20837C1.22566 12.9185 1.25292 13.2068 1.29228 13.4912H16.5513C17.2315 13.4912 17.6123 13.1052 17.736 12.6264ZM2.14953 16.4783C2.14953 16.4783 4.67918 22.6896 11.9886 22.8C16.3573 22.8 20.1112 20.2053 21.8163 16.4783H2.14953Z" fill="white"/>
<path d="M11.9884 1.19995C7.94896 1.19995 4.43385 3.41817 2.57758 6.69724C4.02822 6.6942 6.85337 6.69247 6.85337 6.69247H6.85402V6.69139C10.1934 6.69139 10.3175 6.70631 10.9698 6.73354L11.3737 6.74843C12.7807 6.79534 14.51 6.94637 15.8707 7.97588C16.6093 8.53425 17.6757 9.76665 18.3114 10.6447C18.8991 11.4567 19.0682 12.3903 18.6686 13.2847C18.3008 14.1067 17.5094 14.5971 16.5511 14.5971H1.552C1.552 14.5971 1.64129 14.9756 1.77517 15.3934H22.2494C22.613 14.3005 22.7989 13.1563 22.7999 12.0046C22.8002 6.03791 17.9596 1.19995 11.9884 1.19995Z" fill="white"/>
</svg>
