<svg width="24" height="24" viewBox="0 0 24 24" fill="none" xmlns="http://www.w3.org/2000/svg">
<path d="M21.6396 13.3242C20.1455 15.1943 18.5319 17.3317 15.3045 17.3317C12.4218 17.3317 11.3478 14.8058 11.2723 12.7538C11.9039 14.0806 13.1388 15.155 15.0655 15.1053C18.7709 14.9865 21.3109 11.6618 21.3109 8.63391C21.3109 5.01232 18.5916 2.40002 13.8702 2.40002C10.4934 2.40002 6.30987 3.67649 3.56068 5.69508C3.53079 7.77304 4.69621 10.4744 5.11457 10.1775C7.49794 8.47522 9.38787 7.37939 11.221 6.82992C8.50747 9.83583 1.99706 16.8154 1.19995 18.0441C1.2896 19.1721 2.69408 22.2 3.38138 22.2C3.59056 22.2 3.76985 22.0813 3.97903 21.8735C5.94177 19.6827 7.54177 17.7186 8.96493 15.8254C9.16477 18.6001 10.5383 21.9922 14.3782 21.9922C17.8147 21.9922 21.2213 19.5284 22.7752 13.9772C22.9545 13.2945 22.1178 12.7601 21.6396 13.3242ZM17.725 8.8417C17.725 10.5931 15.9918 11.454 14.4081 11.454C13.5615 11.454 12.9112 11.2332 12.3968 10.9462C13.3432 9.52275 14.2799 8.06311 15.2864 6.50055C17.061 6.79893 17.725 7.77882 17.725 8.8417Z" fill="#FF4438"/>
</svg>
