<svg width="228" height="45" viewBox="0 0 228 45" fill="none" xmlns="http://www.w3.org/2000/svg">
<g filter="url(#filter0_ddi_713_95)">
<path d="M203.748 16.32C203.316 16.288 203.116 16.008 203.148 15.48C203.164 15.352 203.252 15.2 203.412 15.024C203.572 14.832 203.756 14.728 203.964 14.712C204.46 14.664 205.068 14.592 205.788 14.496C206.524 14.384 207.332 14.256 208.212 14.112C208.372 13.328 208.564 12.504 208.788 11.64C209.012 10.776 209.26 9.93605 209.532 9.12005C209.804 8.28805 210.092 7.53605 210.396 6.86405C210.7 6.19205 211.02 5.66405 211.356 5.28005C211.532 5.10405 211.692 4.98405 211.836 4.92005C211.98 4.84005 212.108 4.80005 212.22 4.80005C212.444 4.80005 212.62 4.89605 212.748 5.08805C212.892 5.28005 212.964 5.49605 212.964 5.73605C212.964 5.86405 212.94 5.99205 212.892 6.12005C212.572 7.01605 212.228 8.12005 211.86 9.43205C211.492 10.744 211.1 12.176 210.684 13.728C212.156 13.488 213.628 13.232 215.1 12.96C216.572 12.688 217.836 12.44 218.892 12.216C219.196 12.088 219.428 12.112 219.588 12.288C219.764 12.464 219.852 12.64 219.852 12.816C219.852 13.04 219.788 13.208 219.66 13.32C219.548 13.432 219.428 13.528 219.3 13.608L219.276 13.632C218.956 13.76 218.476 13.912 217.836 14.088C217.196 14.248 216.46 14.424 215.628 14.616C214.796 14.792 213.908 14.968 212.964 15.144C212.036 15.32 211.116 15.4801 210.204 15.6241C209.836 17.0321 209.46 18.4801 209.076 19.9681C208.708 21.4401 208.34 22.888 207.972 24.312C207.812 24.888 207.628 25.248 207.42 25.392C207.228 25.552 207.02 25.632 206.796 25.632C206.54 25.632 206.316 25.536 206.124 25.344C205.948 25.152 205.924 24.76 206.052 24.168L207.804 15.984C206.844 16.128 205.996 16.232 205.26 16.296C204.54 16.36 204.036 16.368 203.748 16.32Z" fill="#668FE0"/>
<path d="M203.748 16.32C203.316 16.288 203.116 16.008 203.148 15.48C203.164 15.352 203.252 15.2 203.412 15.024C203.572 14.832 203.756 14.728 203.964 14.712C204.46 14.664 205.068 14.592 205.788 14.496C206.524 14.384 207.332 14.256 208.212 14.112C208.372 13.328 208.564 12.504 208.788 11.64C209.012 10.776 209.26 9.93605 209.532 9.12005C209.804 8.28805 210.092 7.53605 210.396 6.86405C210.7 6.19205 211.02 5.66405 211.356 5.28005C211.532 5.10405 211.692 4.98405 211.836 4.92005C211.98 4.84005 212.108 4.80005 212.22 4.80005C212.444 4.80005 212.62 4.89605 212.748 5.08805C212.892 5.28005 212.964 5.49605 212.964 5.73605C212.964 5.86405 212.94 5.99205 212.892 6.12005C212.572 7.01605 212.228 8.12005 211.86 9.43205C211.492 10.744 211.1 12.176 210.684 13.728C212.156 13.488 213.628 13.232 215.1 12.96C216.572 12.688 217.836 12.44 218.892 12.216C219.196 12.088 219.428 12.112 219.588 12.288C219.764 12.464 219.852 12.64 219.852 12.816C219.852 13.04 219.788 13.208 219.66 13.32C219.548 13.432 219.428 13.528 219.3 13.608L219.276 13.632C218.956 13.76 218.476 13.912 217.836 14.088C217.196 14.248 216.46 14.424 215.628 14.616C214.796 14.792 213.908 14.968 212.964 15.144C212.036 15.32 211.116 15.4801 210.204 15.6241C209.836 17.0321 209.46 18.4801 209.076 19.9681C208.708 21.4401 208.34 22.888 207.972 24.312C207.812 24.888 207.628 25.248 207.42 25.392C207.228 25.552 207.02 25.632 206.796 25.632C206.54 25.632 206.316 25.536 206.124 25.344C205.948 25.152 205.924 24.76 206.052 24.168L207.804 15.984C206.844 16.128 205.996 16.232 205.26 16.296C204.54 16.36 204.036 16.368 203.748 16.32Z" fill="url(#paint0_linear_713_95)" fill-opacity="0.3"/>
</g>
<g filter="url(#filter1_ddi_713_95)">
<path d="M197.141 24.5279C196.789 24.5279 196.517 24.4239 196.325 24.2159C196.149 24.0239 196.061 23.7999 196.061 23.5439C196.061 23.3199 196.157 23.1119 196.349 22.9199C196.557 22.7119 196.837 22.5279 197.189 22.3679C197.829 22.0319 198.429 21.6959 198.989 21.3599C199.565 21.0239 200.029 20.6639 200.381 20.2799C200.733 19.8959 200.909 19.4879 200.909 19.0559C200.909 18.6879 200.789 18.4079 200.549 18.2159C200.309 18.0079 199.981 17.9039 199.565 17.9039C199.325 17.9039 198.989 17.9519 198.557 18.0479C198.125 18.1279 197.653 18.2239 197.141 18.3359C196.645 18.4319 196.157 18.5279 195.677 18.6239C195.197 18.7039 194.789 18.7439 194.453 18.7439C193.845 18.7439 193.389 18.5999 193.085 18.3119C192.781 18.0079 192.629 17.5999 192.629 17.0879C192.629 16.8319 192.781 16.4479 193.085 15.9359C193.389 15.4239 193.789 14.8559 194.285 14.2319C194.797 13.5919 195.357 12.9519 195.965 12.3119C196.573 11.6719 197.189 11.0799 197.813 10.5359C198.453 9.99191 199.045 9.55191 199.589 9.21591C200.149 8.87991 200.613 8.71191 200.981 8.71191C201.349 8.71191 201.629 8.83191 201.821 9.07191C202.013 9.31191 202.109 9.61591 202.109 9.98391C202.109 10.2719 202.061 10.5199 201.965 10.7279C201.869 10.9199 201.669 11.0719 201.365 11.1839C201.077 11.2959 200.629 11.3599 200.021 11.3759C199.397 11.8719 198.733 12.4399 198.029 13.0799C197.341 13.7039 196.709 14.3519 196.133 15.0239C195.573 15.6799 195.165 16.3119 194.909 16.9199C195.437 16.7439 196.077 16.5919 196.829 16.4639C197.597 16.3199 198.373 16.2479 199.157 16.2479C200.389 16.2479 201.301 16.5279 201.893 17.0879C202.501 17.6319 202.805 18.3519 202.805 19.2479C202.805 19.8239 202.621 20.4239 202.253 21.0479C201.901 21.6559 201.437 22.2239 200.861 22.7519C200.285 23.2799 199.669 23.7039 199.013 24.0239C198.357 24.3599 197.733 24.5279 197.141 24.5279Z" fill="#668FE0"/>
<path d="M197.141 24.5279C196.789 24.5279 196.517 24.4239 196.325 24.2159C196.149 24.0239 196.061 23.7999 196.061 23.5439C196.061 23.3199 196.157 23.1119 196.349 22.9199C196.557 22.7119 196.837 22.5279 197.189 22.3679C197.829 22.0319 198.429 21.6959 198.989 21.3599C199.565 21.0239 200.029 20.6639 200.381 20.2799C200.733 19.8959 200.909 19.4879 200.909 19.0559C200.909 18.6879 200.789 18.4079 200.549 18.2159C200.309 18.0079 199.981 17.9039 199.565 17.9039C199.325 17.9039 198.989 17.9519 198.557 18.0479C198.125 18.1279 197.653 18.2239 197.141 18.3359C196.645 18.4319 196.157 18.5279 195.677 18.6239C195.197 18.7039 194.789 18.7439 194.453 18.7439C193.845 18.7439 193.389 18.5999 193.085 18.3119C192.781 18.0079 192.629 17.5999 192.629 17.0879C192.629 16.8319 192.781 16.4479 193.085 15.9359C193.389 15.4239 193.789 14.8559 194.285 14.2319C194.797 13.5919 195.357 12.9519 195.965 12.3119C196.573 11.6719 197.189 11.0799 197.813 10.5359C198.453 9.99191 199.045 9.55191 199.589 9.21591C200.149 8.87991 200.613 8.71191 200.981 8.71191C201.349 8.71191 201.629 8.83191 201.821 9.07191C202.013 9.31191 202.109 9.61591 202.109 9.98391C202.109 10.2719 202.061 10.5199 201.965 10.7279C201.869 10.9199 201.669 11.0719 201.365 11.1839C201.077 11.2959 200.629 11.3599 200.021 11.3759C199.397 11.8719 198.733 12.4399 198.029 13.0799C197.341 13.7039 196.709 14.3519 196.133 15.0239C195.573 15.6799 195.165 16.3119 194.909 16.9199C195.437 16.7439 196.077 16.5919 196.829 16.4639C197.597 16.3199 198.373 16.2479 199.157 16.2479C200.389 16.2479 201.301 16.5279 201.893 17.0879C202.501 17.6319 202.805 18.3519 202.805 19.2479C202.805 19.8239 202.621 20.4239 202.253 21.0479C201.901 21.6559 201.437 22.2239 200.861 22.7519C200.285 23.2799 199.669 23.7039 199.013 24.0239C198.357 24.3599 197.733 24.5279 197.141 24.5279Z" fill="url(#paint1_linear_713_95)" fill-opacity="0.3"/>
</g>
<g filter="url(#filter2_ddi_713_95)">
<path d="M184.207 24.24C183.263 24.24 182.519 23.88 181.975 23.16C181.431 22.44 181.159 21.504 181.159 20.352C181.159 19.936 181.215 19.496 181.327 19.032C181.455 18.552 181.615 18.12 181.807 17.736C181.695 17.624 181.607 17.472 181.543 17.28C181.479 17.072 181.447 16.816 181.447 16.512C181.447 15.568 181.607 14.704 181.927 13.92C182.247 13.136 182.671 12.456 183.199 11.88C183.727 11.288 184.311 10.832 184.951 10.512C185.607 10.192 186.271 10.032 186.943 10.032C188.047 10.032 188.943 10.432 189.631 11.232C190.319 12.016 190.663 13.216 190.663 14.832C190.663 15.68 190.535 16.544 190.279 17.424C190.039 18.304 189.703 19.152 189.271 19.968C188.855 20.784 188.367 21.512 187.807 22.152C187.263 22.792 186.679 23.304 186.055 23.688C185.447 24.056 184.831 24.24 184.207 24.24ZM183.391 16.92C183.487 17.048 183.535 17.216 183.535 17.424C183.535 17.664 183.487 17.904 183.391 18.144C183.311 18.384 183.223 18.712 183.127 19.128C183.031 19.544 182.983 20.136 182.983 20.904C182.983 21.672 183.287 22.056 183.895 22.056C184.567 22.056 185.191 21.792 185.767 21.264C186.343 20.72 186.855 20.024 187.303 19.176C187.751 18.328 188.095 17.424 188.335 16.464C188.591 15.488 188.719 14.568 188.719 13.704C188.719 13.144 188.615 12.752 188.407 12.528C188.199 12.288 187.823 12.168 187.279 12.168C186.719 12.168 186.135 12.36 185.527 12.744C184.935 13.112 184.439 13.616 184.039 14.256C183.639 14.896 183.439 15.616 183.439 16.416C183.439 16.592 183.423 16.76 183.391 16.92Z" fill="#668FE0"/>
<path d="M184.207 24.24C183.263 24.24 182.519 23.88 181.975 23.16C181.431 22.44 181.159 21.504 181.159 20.352C181.159 19.936 181.215 19.496 181.327 19.032C181.455 18.552 181.615 18.12 181.807 17.736C181.695 17.624 181.607 17.472 181.543 17.28C181.479 17.072 181.447 16.816 181.447 16.512C181.447 15.568 181.607 14.704 181.927 13.92C182.247 13.136 182.671 12.456 183.199 11.88C183.727 11.288 184.311 10.832 184.951 10.512C185.607 10.192 186.271 10.032 186.943 10.032C188.047 10.032 188.943 10.432 189.631 11.232C190.319 12.016 190.663 13.216 190.663 14.832C190.663 15.68 190.535 16.544 190.279 17.424C190.039 18.304 189.703 19.152 189.271 19.968C188.855 20.784 188.367 21.512 187.807 22.152C187.263 22.792 186.679 23.304 186.055 23.688C185.447 24.056 184.831 24.24 184.207 24.24ZM183.391 16.92C183.487 17.048 183.535 17.216 183.535 17.424C183.535 17.664 183.487 17.904 183.391 18.144C183.311 18.384 183.223 18.712 183.127 19.128C183.031 19.544 182.983 20.136 182.983 20.904C182.983 21.672 183.287 22.056 183.895 22.056C184.567 22.056 185.191 21.792 185.767 21.264C186.343 20.72 186.855 20.024 187.303 19.176C187.751 18.328 188.095 17.424 188.335 16.464C188.591 15.488 188.719 14.568 188.719 13.704C188.719 13.144 188.615 12.752 188.407 12.528C188.199 12.288 187.823 12.168 187.279 12.168C186.719 12.168 186.135 12.36 185.527 12.744C184.935 13.112 184.439 13.616 184.039 14.256C183.639 14.896 183.439 15.616 183.439 16.416C183.439 16.592 183.423 16.76 183.391 16.92Z" fill="url(#paint2_linear_713_95)" fill-opacity="0.3"/>
</g>
<g filter="url(#filter3_ddi_713_95)">
<path d="M165.649 32.1281C165.377 32.1281 165.161 32.0321 165.001 31.8401C164.857 31.6481 164.785 31.2801 164.785 30.7361C164.785 29.9521 164.841 29.0401 164.953 28.0001C165.065 26.9601 165.217 25.8561 165.409 24.6881C165.617 23.5201 165.841 22.3521 166.081 21.1841C166.337 20.0161 166.601 18.9041 166.873 17.8481C167.161 16.7921 167.441 15.8561 167.713 15.0401C167.985 14.2081 168.233 13.5521 168.457 13.0721C168.697 12.5921 168.905 12.3521 169.081 12.3521C169.385 12.3521 169.625 12.4401 169.801 12.6161C169.993 12.7921 170.089 13.0561 170.089 13.4081C170.089 13.8561 169.953 14.5841 169.681 15.5921C169.409 16.5841 169.057 17.8801 168.625 19.4801C169.025 18.7441 169.457 17.9761 169.921 17.1761C170.385 16.3761 170.873 15.6001 171.385 14.8481C171.897 14.0801 172.409 13.3921 172.921 12.7841C173.449 12.1761 173.961 11.6881 174.457 11.3201C174.953 10.9521 175.433 10.7681 175.897 10.7681C176.393 10.7681 176.833 10.9281 177.217 11.2481C177.601 11.5521 177.897 11.9681 178.105 12.4961C178.329 13.0081 178.441 13.5841 178.441 14.2241C178.441 15.5521 178.217 16.8401 177.769 18.0881C177.321 19.3201 176.697 20.4321 175.897 21.4241C175.113 22.4001 174.185 23.1761 173.113 23.7521C172.057 24.3281 170.913 24.6161 169.681 24.6161C169.217 24.6161 168.801 24.5921 168.433 24.5441C168.065 24.4961 167.745 24.4401 167.473 24.3761C167.281 25.4321 167.097 26.5201 166.921 27.6401C166.745 28.7601 166.569 29.9521 166.393 31.2161C166.345 31.5521 166.265 31.7841 166.153 31.9121C166.041 32.0561 165.873 32.1281 165.649 32.1281ZM176.329 12.5921C175.993 12.5921 175.593 12.7841 175.129 13.1681C174.681 13.5521 174.193 14.0641 173.665 14.7041C173.153 15.3281 172.633 16.0241 172.105 16.7921C171.577 17.5441 171.065 18.3121 170.569 19.0961C170.073 19.8801 169.617 20.6081 169.201 21.2801C168.801 21.9521 168.473 22.5121 168.217 22.9601C169.465 22.9281 170.561 22.6801 171.505 22.2161C172.449 21.7361 173.257 21.1281 173.929 20.3921C174.601 19.6401 175.145 18.8321 175.561 17.9681C175.993 17.0881 176.305 16.2401 176.497 15.4241C176.689 14.5921 176.785 13.8721 176.785 13.2641C176.785 12.8161 176.633 12.5921 176.329 12.5921Z" fill="#668FE0"/>
<path d="M165.649 32.1281C165.377 32.1281 165.161 32.0321 165.001 31.8401C164.857 31.6481 164.785 31.2801 164.785 30.7361C164.785 29.9521 164.841 29.0401 164.953 28.0001C165.065 26.9601 165.217 25.8561 165.409 24.6881C165.617 23.5201 165.841 22.3521 166.081 21.1841C166.337 20.0161 166.601 18.9041 166.873 17.8481C167.161 16.7921 167.441 15.8561 167.713 15.0401C167.985 14.2081 168.233 13.5521 168.457 13.0721C168.697 12.5921 168.905 12.3521 169.081 12.3521C169.385 12.3521 169.625 12.4401 169.801 12.6161C169.993 12.7921 170.089 13.0561 170.089 13.4081C170.089 13.8561 169.953 14.5841 169.681 15.5921C169.409 16.5841 169.057 17.8801 168.625 19.4801C169.025 18.7441 169.457 17.9761 169.921 17.1761C170.385 16.3761 170.873 15.6001 171.385 14.8481C171.897 14.0801 172.409 13.3921 172.921 12.7841C173.449 12.1761 173.961 11.6881 174.457 11.3201C174.953 10.9521 175.433 10.7681 175.897 10.7681C176.393 10.7681 176.833 10.9281 177.217 11.2481C177.601 11.5521 177.897 11.9681 178.105 12.4961C178.329 13.0081 178.441 13.5841 178.441 14.2241C178.441 15.5521 178.217 16.8401 177.769 18.0881C177.321 19.3201 176.697 20.4321 175.897 21.4241C175.113 22.4001 174.185 23.1761 173.113 23.7521C172.057 24.3281 170.913 24.6161 169.681 24.6161C169.217 24.6161 168.801 24.5921 168.433 24.5441C168.065 24.4961 167.745 24.4401 167.473 24.3761C167.281 25.4321 167.097 26.5201 166.921 27.6401C166.745 28.7601 166.569 29.9521 166.393 31.2161C166.345 31.5521 166.265 31.7841 166.153 31.9121C166.041 32.0561 165.873 32.1281 165.649 32.1281ZM176.329 12.5921C175.993 12.5921 175.593 12.7841 175.129 13.1681C174.681 13.5521 174.193 14.0641 173.665 14.7041C173.153 15.3281 172.633 16.0241 172.105 16.7921C171.577 17.5441 171.065 18.3121 170.569 19.0961C170.073 19.8801 169.617 20.6081 169.201 21.2801C168.801 21.9521 168.473 22.5121 168.217 22.9601C169.465 22.9281 170.561 22.6801 171.505 22.2161C172.449 21.7361 173.257 21.1281 173.929 20.3921C174.601 19.6401 175.145 18.8321 175.561 17.9681C175.993 17.0881 176.305 16.2401 176.497 15.4241C176.689 14.5921 176.785 13.8721 176.785 13.2641C176.785 12.8161 176.633 12.5921 176.329 12.5921Z" fill="url(#paint3_linear_713_95)" fill-opacity="0.3"/>
</g>
<g filter="url(#filter4_ddi_713_95)">
<path d="M153.615 16.32C153.183 16.288 152.983 16.008 153.015 15.48C153.031 15.352 153.119 15.2 153.279 15.024C153.439 14.832 153.623 14.728 153.831 14.712C154.327 14.664 154.935 14.592 155.655 14.496C156.391 14.384 157.199 14.256 158.079 14.112C158.239 13.328 158.431 12.504 158.655 11.64C158.879 10.776 159.127 9.93605 159.399 9.12005C159.671 8.28805 159.959 7.53605 160.263 6.86405C160.567 6.19205 160.887 5.66405 161.223 5.28005C161.399 5.10405 161.559 4.98405 161.703 4.92005C161.847 4.84005 161.975 4.80005 162.087 4.80005C162.311 4.80005 162.487 4.89605 162.615 5.08805C162.759 5.28005 162.831 5.49605 162.831 5.73605C162.831 5.86405 162.807 5.99205 162.759 6.12005C162.439 7.01605 162.095 8.12005 161.727 9.43205C161.359 10.744 160.967 12.176 160.551 13.728C162.023 13.488 163.495 13.232 164.967 12.96C166.439 12.688 167.703 12.44 168.759 12.216C169.063 12.088 169.295 12.112 169.455 12.288C169.631 12.464 169.719 12.64 169.719 12.816C169.719 13.04 169.655 13.208 169.527 13.32C169.415 13.432 169.295 13.528 169.167 13.608L169.143 13.632C168.823 13.76 168.343 13.912 167.703 14.088C167.063 14.248 166.327 14.424 165.495 14.616C164.663 14.792 163.775 14.968 162.831 15.144C161.903 15.32 160.983 15.4801 160.071 15.6241C159.703 17.0321 159.327 18.4801 158.943 19.9681C158.575 21.4401 158.207 22.888 157.839 24.312C157.679 24.888 157.495 25.248 157.287 25.392C157.095 25.552 156.887 25.632 156.663 25.632C156.407 25.632 156.183 25.536 155.991 25.344C155.815 25.152 155.791 24.76 155.919 24.168L157.671 15.984C156.711 16.128 155.863 16.232 155.127 16.296C154.407 16.36 153.903 16.368 153.615 16.32Z" fill="#668FE0"/>
<path d="M153.615 16.32C153.183 16.288 152.983 16.008 153.015 15.48C153.031 15.352 153.119 15.2 153.279 15.024C153.439 14.832 153.623 14.728 153.831 14.712C154.327 14.664 154.935 14.592 155.655 14.496C156.391 14.384 157.199 14.256 158.079 14.112C158.239 13.328 158.431 12.504 158.655 11.64C158.879 10.776 159.127 9.93605 159.399 9.12005C159.671 8.28805 159.959 7.53605 160.263 6.86405C160.567 6.19205 160.887 5.66405 161.223 5.28005C161.399 5.10405 161.559 4.98405 161.703 4.92005C161.847 4.84005 161.975 4.80005 162.087 4.80005C162.311 4.80005 162.487 4.89605 162.615 5.08805C162.759 5.28005 162.831 5.49605 162.831 5.73605C162.831 5.86405 162.807 5.99205 162.759 6.12005C162.439 7.01605 162.095 8.12005 161.727 9.43205C161.359 10.744 160.967 12.176 160.551 13.728C162.023 13.488 163.495 13.232 164.967 12.96C166.439 12.688 167.703 12.44 168.759 12.216C169.063 12.088 169.295 12.112 169.455 12.288C169.631 12.464 169.719 12.64 169.719 12.816C169.719 13.04 169.655 13.208 169.527 13.32C169.415 13.432 169.295 13.528 169.167 13.608L169.143 13.632C168.823 13.76 168.343 13.912 167.703 14.088C167.063 14.248 166.327 14.424 165.495 14.616C164.663 14.792 163.775 14.968 162.831 15.144C161.903 15.32 160.983 15.4801 160.071 15.6241C159.703 17.0321 159.327 18.4801 158.943 19.9681C158.575 21.4401 158.207 22.888 157.839 24.312C157.679 24.888 157.495 25.248 157.287 25.392C157.095 25.552 156.887 25.632 156.663 25.632C156.407 25.632 156.183 25.536 155.991 25.344C155.815 25.152 155.791 24.76 155.919 24.168L157.671 15.984C156.711 16.128 155.863 16.232 155.127 16.296C154.407 16.36 153.903 16.368 153.615 16.32Z" fill="url(#paint4_linear_713_95)" fill-opacity="0.3"/>
</g>
<g filter="url(#filter5_ddi_713_95)">
<path d="M148.905 24.5759C148.633 24.5759 148.401 24.4559 148.209 24.2159C148.017 23.9759 147.921 23.6239 147.921 23.1599C147.921 22.6159 148.001 21.8399 148.161 20.8319C148.337 19.8239 148.593 18.4879 148.929 16.8239C148.497 17.8479 148.017 18.8159 147.489 19.7279C146.977 20.6399 146.433 21.3839 145.857 21.9599C145.281 22.5359 144.689 22.8239 144.081 22.8239C143.489 22.8239 142.961 22.5919 142.497 22.1279C142.049 21.6639 141.825 20.8479 141.825 19.6799C141.825 19.0239 141.881 18.2879 141.993 17.4719C142.105 16.6399 142.249 15.8159 142.425 14.9999C142.601 14.1839 142.777 13.4559 142.953 12.8159C143.129 12.1599 143.289 11.6799 143.433 11.3759C143.545 11.1199 143.657 10.9519 143.769 10.8719C143.881 10.7759 144.033 10.7279 144.225 10.7279C144.449 10.7279 144.689 10.8239 144.945 11.0159C145.201 11.2079 145.329 11.5279 145.329 11.9759C145.329 12.0879 145.273 12.3519 145.161 12.7679C145.065 13.1679 144.937 13.6639 144.777 14.2559C144.633 14.8319 144.481 15.4559 144.321 16.1279C144.161 16.7999 144.025 17.4719 143.913 18.1439C143.817 18.8159 143.769 19.4319 143.769 19.9919C143.769 20.2959 143.801 20.5439 143.865 20.7359C143.929 20.9279 144.089 21.0239 144.345 21.0239C144.569 21.0239 144.849 20.7999 145.185 20.3519C145.537 19.9039 145.913 19.3119 146.313 18.5759C146.729 17.8239 147.153 16.9919 147.585 16.0799C148.033 15.1679 148.465 14.2319 148.881 13.2719C149.313 12.3119 149.705 11.3999 150.057 10.5359C150.185 10.2479 150.321 10.0719 150.465 10.0079C150.609 9.92794 150.769 9.88794 150.945 9.88794C151.233 9.88794 151.489 10.0079 151.713 10.2479C151.953 10.4719 152.073 10.7679 152.073 11.1359C152.073 11.3759 152.025 11.7919 151.929 12.3839C151.849 12.9759 151.729 13.6719 151.569 14.4719C151.425 15.2559 151.257 16.0879 151.065 16.9679C150.889 17.8479 150.713 18.7199 150.537 19.5839C150.361 20.4319 150.193 21.2079 150.033 21.9119C149.889 22.6159 149.769 23.1839 149.673 23.6159C149.593 24.0159 149.481 24.2719 149.337 24.3839C149.209 24.5119 149.065 24.5759 148.905 24.5759Z" fill="#668FE0"/>
<path d="M148.905 24.5759C148.633 24.5759 148.401 24.4559 148.209 24.2159C148.017 23.9759 147.921 23.6239 147.921 23.1599C147.921 22.6159 148.001 21.8399 148.161 20.8319C148.337 19.8239 148.593 18.4879 148.929 16.8239C148.497 17.8479 148.017 18.8159 147.489 19.7279C146.977 20.6399 146.433 21.3839 145.857 21.9599C145.281 22.5359 144.689 22.8239 144.081 22.8239C143.489 22.8239 142.961 22.5919 142.497 22.1279C142.049 21.6639 141.825 20.8479 141.825 19.6799C141.825 19.0239 141.881 18.2879 141.993 17.4719C142.105 16.6399 142.249 15.8159 142.425 14.9999C142.601 14.1839 142.777 13.4559 142.953 12.8159C143.129 12.1599 143.289 11.6799 143.433 11.3759C143.545 11.1199 143.657 10.9519 143.769 10.8719C143.881 10.7759 144.033 10.7279 144.225 10.7279C144.449 10.7279 144.689 10.8239 144.945 11.0159C145.201 11.2079 145.329 11.5279 145.329 11.9759C145.329 12.0879 145.273 12.3519 145.161 12.7679C145.065 13.1679 144.937 13.6639 144.777 14.2559C144.633 14.8319 144.481 15.4559 144.321 16.1279C144.161 16.7999 144.025 17.4719 143.913 18.1439C143.817 18.8159 143.769 19.4319 143.769 19.9919C143.769 20.2959 143.801 20.5439 143.865 20.7359C143.929 20.9279 144.089 21.0239 144.345 21.0239C144.569 21.0239 144.849 20.7999 145.185 20.3519C145.537 19.9039 145.913 19.3119 146.313 18.5759C146.729 17.8239 147.153 16.9919 147.585 16.0799C148.033 15.1679 148.465 14.2319 148.881 13.2719C149.313 12.3119 149.705 11.3999 150.057 10.5359C150.185 10.2479 150.321 10.0719 150.465 10.0079C150.609 9.92794 150.769 9.88794 150.945 9.88794C151.233 9.88794 151.489 10.0079 151.713 10.2479C151.953 10.4719 152.073 10.7679 152.073 11.1359C152.073 11.3759 152.025 11.7919 151.929 12.3839C151.849 12.9759 151.729 13.6719 151.569 14.4719C151.425 15.2559 151.257 16.0879 151.065 16.9679C150.889 17.8479 150.713 18.7199 150.537 19.5839C150.361 20.4319 150.193 21.2079 150.033 21.9119C149.889 22.6159 149.769 23.1839 149.673 23.6159C149.593 24.0159 149.481 24.2719 149.337 24.3839C149.209 24.5119 149.065 24.5759 148.905 24.5759Z" fill="url(#paint5_linear_713_95)" fill-opacity="0.3"/>
</g>
<g filter="url(#filter6_ddi_713_95)">
<path d="M127.599 24.432C126.447 24.432 125.431 24.112 124.551 23.472C123.687 22.832 123.007 21.952 122.511 20.832C122.031 19.712 121.791 18.432 121.791 16.992C121.791 16.24 121.903 15.504 122.127 14.784C122.367 14.048 122.663 13.36 123.015 12.72C123.367 12.064 123.727 11.48 124.095 10.968C123.967 10.776 123.903 10.48 123.903 10.08C123.903 9.67999 124.071 9.23199 124.407 8.73599C124.743 8.23999 125.207 7.75999 125.799 7.29599C126.391 6.83199 127.079 6.44799 127.863 6.14399C128.647 5.83999 129.479 5.68799 130.359 5.68799C131.815 5.68799 133.047 5.99999 134.055 6.62399C135.063 7.24799 135.823 8.07199 136.335 9.09599C136.863 10.104 137.127 11.208 137.127 12.408C137.127 14.136 136.855 15.728 136.311 17.184C135.767 18.64 135.031 19.912 134.103 21C133.191 22.088 132.167 22.936 131.031 23.544C129.911 24.136 128.767 24.432 127.599 24.432ZM127.239 8.99999C127.303 9.07999 127.335 9.15999 127.335 9.23999C127.335 9.35199 127.295 9.46399 127.215 9.57599C127.151 9.68799 127.071 9.81599 126.975 9.95999C126.671 10.344 126.343 10.848 125.991 11.472C125.655 12.096 125.335 12.784 125.031 13.536C124.743 14.288 124.503 15.064 124.311 15.864C124.119 16.648 124.023 17.4 124.023 18.12C124.023 19.352 124.303 20.352 124.863 21.12C125.423 21.872 126.255 22.248 127.359 22.248C128.191 22.248 128.983 22.048 129.735 21.648C130.503 21.248 131.199 20.712 131.823 20.04C132.463 19.352 133.015 18.592 133.479 17.76C133.943 16.912 134.303 16.04 134.559 15.144C134.815 14.248 134.943 13.392 134.943 12.576C134.943 11.728 134.775 10.936 134.439 10.2C134.103 9.46399 133.615 8.87199 132.975 8.42399C132.335 7.97599 131.559 7.75199 130.647 7.75199C129.879 7.75199 129.215 7.87999 128.655 8.13599C128.111 8.37599 127.639 8.66399 127.239 8.99999Z" fill="#668FE0"/>
<path d="M127.599 24.432C126.447 24.432 125.431 24.112 124.551 23.472C123.687 22.832 123.007 21.952 122.511 20.832C122.031 19.712 121.791 18.432 121.791 16.992C121.791 16.24 121.903 15.504 122.127 14.784C122.367 14.048 122.663 13.36 123.015 12.72C123.367 12.064 123.727 11.48 124.095 10.968C123.967 10.776 123.903 10.48 123.903 10.08C123.903 9.67999 124.071 9.23199 124.407 8.73599C124.743 8.23999 125.207 7.75999 125.799 7.29599C126.391 6.83199 127.079 6.44799 127.863 6.14399C128.647 5.83999 129.479 5.68799 130.359 5.68799C131.815 5.68799 133.047 5.99999 134.055 6.62399C135.063 7.24799 135.823 8.07199 136.335 9.09599C136.863 10.104 137.127 11.208 137.127 12.408C137.127 14.136 136.855 15.728 136.311 17.184C135.767 18.64 135.031 19.912 134.103 21C133.191 22.088 132.167 22.936 131.031 23.544C129.911 24.136 128.767 24.432 127.599 24.432ZM127.239 8.99999C127.303 9.07999 127.335 9.15999 127.335 9.23999C127.335 9.35199 127.295 9.46399 127.215 9.57599C127.151 9.68799 127.071 9.81599 126.975 9.95999C126.671 10.344 126.343 10.848 125.991 11.472C125.655 12.096 125.335 12.784 125.031 13.536C124.743 14.288 124.503 15.064 124.311 15.864C124.119 16.648 124.023 17.4 124.023 18.12C124.023 19.352 124.303 20.352 124.863 21.12C125.423 21.872 126.255 22.248 127.359 22.248C128.191 22.248 128.983 22.048 129.735 21.648C130.503 21.248 131.199 20.712 131.823 20.04C132.463 19.352 133.015 18.592 133.479 17.76C133.943 16.912 134.303 16.04 134.559 15.144C134.815 14.248 134.943 13.392 134.943 12.576C134.943 11.728 134.775 10.936 134.439 10.2C134.103 9.46399 133.615 8.87199 132.975 8.42399C132.335 7.97599 131.559 7.75199 130.647 7.75199C129.879 7.75199 129.215 7.87999 128.655 8.13599C128.111 8.37599 127.639 8.66399 127.239 8.99999Z" fill="url(#paint6_linear_713_95)" fill-opacity="0.3"/>
</g>
<g filter="url(#filter7_ddi_713_95)">
<path d="M104.074 23.28C104.058 23.536 103.954 23.744 103.762 23.904C103.57 24.064 103.346 24.144 103.09 24.144C102.802 24.144 102.562 24.048 102.37 23.856C102.178 23.664 102.082 23.368 102.082 22.968C102.082 21.928 102.13 20.8 102.226 19.584C102.322 18.352 102.442 17.136 102.586 15.936C102.73 14.72 102.874 13.6 103.018 12.576C102.49 13.328 101.914 14.16 101.29 15.072C100.682 15.984 100.058 16.888 99.4181 17.784C98.7781 18.68 98.1541 19.504 97.5461 20.256C96.9381 20.992 96.3861 21.592 95.8901 22.056C95.3941 22.504 94.9861 22.728 94.6661 22.728C94.0741 22.728 93.5621 22.496 93.1301 22.032C92.6981 21.552 92.4821 20.952 92.4821 20.232C92.4821 19.944 92.5141 19.552 92.5781 19.056C92.6421 18.544 92.7141 18.008 92.7941 17.448C92.8741 16.888 92.9461 16.368 93.0101 15.888C93.0741 15.392 93.1061 15.024 93.1061 14.784C93.1061 14.56 93.0821 14.368 93.0341 14.208C93.0021 14.032 92.9221 13.944 92.7941 13.944C92.6021 13.944 92.3381 14.16 92.0021 14.592C91.6661 15.008 91.2901 15.544 90.8741 16.2C90.4741 16.856 90.0581 17.552 89.6261 18.288C89.2101 19.024 88.8181 19.72 88.4501 20.376C88.0821 21.016 87.7701 21.52 87.5141 21.888C87.3061 22.24 87.1141 22.496 86.9381 22.656C86.7621 22.816 86.5461 22.896 86.2901 22.896C85.9861 22.896 85.7061 22.736 85.4501 22.416C85.2101 22.096 85.0901 21.704 85.0901 21.24C85.0901 20.968 85.1381 20.544 85.2341 19.968C85.3301 19.376 85.4501 18.728 85.5941 18.024C85.7541 17.32 85.9061 16.632 86.0501 15.96C86.2101 15.272 86.3461 14.688 86.4581 14.208C86.5861 13.664 86.7461 13.296 86.9381 13.104C87.1301 12.912 87.3381 12.816 87.5621 12.816C87.8661 12.816 88.1061 12.928 88.2821 13.152C88.4741 13.36 88.5701 13.688 88.5701 14.136C88.5701 14.216 88.5221 14.432 88.4261 14.784C88.3301 15.12 88.2101 15.536 88.0661 16.032C87.9381 16.512 87.7941 17.016 87.6341 17.544C87.4901 18.072 87.3701 18.56 87.2741 19.008C87.6261 18.416 87.9941 17.776 88.3781 17.088C88.7781 16.4 89.1781 15.72 89.5781 15.048C89.9781 14.36 90.3781 13.736 90.7781 13.176C91.1781 12.6 91.5701 12.144 91.9541 11.808C92.3381 11.472 92.7061 11.304 93.0581 11.304C93.4741 11.304 93.8581 11.432 94.2101 11.688C94.5781 11.944 94.8741 12.288 95.0981 12.72C95.3221 13.152 95.4341 13.632 95.4341 14.16C95.4341 14.528 95.3701 15.048 95.2421 15.72C95.1141 16.376 94.9781 17.088 94.8341 17.856C94.7061 18.624 94.6261 19.352 94.5941 20.04C94.5941 20.2 94.6421 20.28 94.7381 20.28C94.8181 20.28 94.9141 20.224 95.0261 20.112C95.4901 19.6 96.0021 18.984 96.5621 18.264C97.1221 17.528 97.6901 16.752 98.2661 15.936C98.8581 15.12 99.4421 14.32 100.018 13.536C100.594 12.736 101.13 12.016 101.626 11.376C102.138 10.72 102.586 10.2 102.97 9.81599C103.37 9.43199 103.682 9.23999 103.906 9.23999C104.386 9.23999 104.754 9.37599 105.01 9.64799C105.266 9.91999 105.394 10.376 105.394 11.016C105.394 11.528 105.354 12.192 105.274 13.008C105.21 13.824 105.122 14.712 105.01 15.672C104.914 16.632 104.802 17.6 104.674 18.576C104.562 19.536 104.45 20.432 104.338 21.264C104.226 22.08 104.138 22.752 104.074 23.28Z" fill="#668FE0"/>
<path d="M104.074 23.28C104.058 23.536 103.954 23.744 103.762 23.904C103.57 24.064 103.346 24.144 103.09 24.144C102.802 24.144 102.562 24.048 102.37 23.856C102.178 23.664 102.082 23.368 102.082 22.968C102.082 21.928 102.13 20.8 102.226 19.584C102.322 18.352 102.442 17.136 102.586 15.936C102.73 14.72 102.874 13.6 103.018 12.576C102.49 13.328 101.914 14.16 101.29 15.072C100.682 15.984 100.058 16.888 99.4181 17.784C98.7781 18.68 98.1541 19.504 97.5461 20.256C96.9381 20.992 96.3861 21.592 95.8901 22.056C95.3941 22.504 94.9861 22.728 94.6661 22.728C94.0741 22.728 93.5621 22.496 93.1301 22.032C92.6981 21.552 92.4821 20.952 92.4821 20.232C92.4821 19.944 92.5141 19.552 92.5781 19.056C92.6421 18.544 92.7141 18.008 92.7941 17.448C92.8741 16.888 92.9461 16.368 93.0101 15.888C93.0741 15.392 93.1061 15.024 93.1061 14.784C93.1061 14.56 93.0821 14.368 93.0341 14.208C93.0021 14.032 92.9221 13.944 92.7941 13.944C92.6021 13.944 92.3381 14.16 92.0021 14.592C91.6661 15.008 91.2901 15.544 90.8741 16.2C90.4741 16.856 90.0581 17.552 89.6261 18.288C89.2101 19.024 88.8181 19.72 88.4501 20.376C88.0821 21.016 87.7701 21.52 87.5141 21.888C87.3061 22.24 87.1141 22.496 86.9381 22.656C86.7621 22.816 86.5461 22.896 86.2901 22.896C85.9861 22.896 85.7061 22.736 85.4501 22.416C85.2101 22.096 85.0901 21.704 85.0901 21.24C85.0901 20.968 85.1381 20.544 85.2341 19.968C85.3301 19.376 85.4501 18.728 85.5941 18.024C85.7541 17.32 85.9061 16.632 86.0501 15.96C86.2101 15.272 86.3461 14.688 86.4581 14.208C86.5861 13.664 86.7461 13.296 86.9381 13.104C87.1301 12.912 87.3381 12.816 87.5621 12.816C87.8661 12.816 88.1061 12.928 88.2821 13.152C88.4741 13.36 88.5701 13.688 88.5701 14.136C88.5701 14.216 88.5221 14.432 88.4261 14.784C88.3301 15.12 88.2101 15.536 88.0661 16.032C87.9381 16.512 87.7941 17.016 87.6341 17.544C87.4901 18.072 87.3701 18.56 87.2741 19.008C87.6261 18.416 87.9941 17.776 88.3781 17.088C88.7781 16.4 89.1781 15.72 89.5781 15.048C89.9781 14.36 90.3781 13.736 90.7781 13.176C91.1781 12.6 91.5701 12.144 91.9541 11.808C92.3381 11.472 92.7061 11.304 93.0581 11.304C93.4741 11.304 93.8581 11.432 94.2101 11.688C94.5781 11.944 94.8741 12.288 95.0981 12.72C95.3221 13.152 95.4341 13.632 95.4341 14.16C95.4341 14.528 95.3701 15.048 95.2421 15.72C95.1141 16.376 94.9781 17.088 94.8341 17.856C94.7061 18.624 94.6261 19.352 94.5941 20.04C94.5941 20.2 94.6421 20.28 94.7381 20.28C94.8181 20.28 94.9141 20.224 95.0261 20.112C95.4901 19.6 96.0021 18.984 96.5621 18.264C97.1221 17.528 97.6901 16.752 98.2661 15.936C98.8581 15.12 99.4421 14.32 100.018 13.536C100.594 12.736 101.13 12.016 101.626 11.376C102.138 10.72 102.586 10.2 102.97 9.81599C103.37 9.43199 103.682 9.23999 103.906 9.23999C104.386 9.23999 104.754 9.37599 105.01 9.64799C105.266 9.91999 105.394 10.376 105.394 11.016C105.394 11.528 105.354 12.192 105.274 13.008C105.21 13.824 105.122 14.712 105.01 15.672C104.914 16.632 104.802 17.6 104.674 18.576C104.562 19.536 104.45 20.432 104.338 21.264C104.226 22.08 104.138 22.752 104.074 23.28Z" fill="url(#paint7_linear_713_95)" fill-opacity="0.3"/>
</g>
<g filter="url(#filter8_ddi_713_95)">
<path d="M69.399 24.624C68.791 24.624 68.287 24.344 67.887 23.784C67.503 23.208 67.311 22.464 67.311 21.552C67.311 20.704 67.519 19.864 67.935 19.032C68.367 18.2 68.935 17.4 69.639 16.632C70.343 15.864 71.111 15.16 71.943 14.52C72.775 13.864 73.607 13.296 74.439 12.816C75.287 12.336 76.063 11.96 76.767 11.688C77.471 11.416 78.031 11.28 78.447 11.28C78.671 11.28 78.855 11.328 78.999 11.424C79.143 11.504 79.215 11.656 79.215 11.88C79.215 12.024 79.159 12.16 79.047 12.288C79.063 12.288 79.079 12.288 79.095 12.288C79.447 12.288 79.623 12.496 79.623 12.912C79.623 13.056 79.567 13.352 79.455 13.8C79.343 14.232 79.215 14.776 79.071 15.432C78.927 16.088 78.799 16.816 78.687 17.616C78.575 18.4 78.519 19.2 78.519 20.016C78.519 20.704 78.783 21.048 79.311 21.048C79.903 21.048 80.503 20.912 81.111 20.64C81.719 20.368 82.311 20.04 82.887 19.656C83.463 19.256 83.991 18.864 84.471 18.48C84.951 18.08 85.359 17.744 85.695 17.472C86.031 17.2 86.271 17.064 86.415 17.064C86.543 17.064 86.655 17.104 86.751 17.184C86.847 17.264 86.895 17.392 86.895 17.568C86.895 17.728 86.735 18.016 86.415 18.432C86.095 18.848 85.671 19.32 85.143 19.848C84.615 20.376 84.023 20.888 83.367 21.384C82.711 21.88 82.039 22.288 81.351 22.608C80.663 22.928 80.007 23.088 79.383 23.088C78.903 23.088 78.463 22.944 78.063 22.656C77.679 22.352 77.367 21.84 77.127 21.12C76.903 20.4 76.791 19.408 76.791 18.144V17.544C76.007 18.84 75.183 20.024 74.319 21.096C73.471 22.168 72.623 23.024 71.775 23.664C70.943 24.304 70.151 24.624 69.399 24.624ZM77.991 13.008C77.911 13.04 77.799 13.088 77.655 13.152C76.919 13.488 76.151 13.904 75.351 14.4C74.567 14.896 73.799 15.448 73.047 16.056C72.311 16.664 71.647 17.296 71.055 17.952C70.463 18.608 69.991 19.272 69.639 19.944C69.287 20.616 69.111 21.272 69.111 21.912C69.111 22.12 69.151 22.28 69.231 22.392C69.327 22.504 69.487 22.56 69.711 22.56C70.031 22.56 70.447 22.36 70.959 21.96C71.471 21.544 72.031 21 72.639 20.328C73.263 19.656 73.887 18.912 74.511 18.096C75.135 17.28 75.727 16.456 76.287 15.624C76.863 14.792 77.359 14.024 77.775 13.32C77.839 13.208 77.911 13.104 77.991 13.008Z" fill="#668FE0"/>
<path d="M69.399 24.624C68.791 24.624 68.287 24.344 67.887 23.784C67.503 23.208 67.311 22.464 67.311 21.552C67.311 20.704 67.519 19.864 67.935 19.032C68.367 18.2 68.935 17.4 69.639 16.632C70.343 15.864 71.111 15.16 71.943 14.52C72.775 13.864 73.607 13.296 74.439 12.816C75.287 12.336 76.063 11.96 76.767 11.688C77.471 11.416 78.031 11.28 78.447 11.28C78.671 11.28 78.855 11.328 78.999 11.424C79.143 11.504 79.215 11.656 79.215 11.88C79.215 12.024 79.159 12.16 79.047 12.288C79.063 12.288 79.079 12.288 79.095 12.288C79.447 12.288 79.623 12.496 79.623 12.912C79.623 13.056 79.567 13.352 79.455 13.8C79.343 14.232 79.215 14.776 79.071 15.432C78.927 16.088 78.799 16.816 78.687 17.616C78.575 18.4 78.519 19.2 78.519 20.016C78.519 20.704 78.783 21.048 79.311 21.048C79.903 21.048 80.503 20.912 81.111 20.64C81.719 20.368 82.311 20.04 82.887 19.656C83.463 19.256 83.991 18.864 84.471 18.48C84.951 18.08 85.359 17.744 85.695 17.472C86.031 17.2 86.271 17.064 86.415 17.064C86.543 17.064 86.655 17.104 86.751 17.184C86.847 17.264 86.895 17.392 86.895 17.568C86.895 17.728 86.735 18.016 86.415 18.432C86.095 18.848 85.671 19.32 85.143 19.848C84.615 20.376 84.023 20.888 83.367 21.384C82.711 21.88 82.039 22.288 81.351 22.608C80.663 22.928 80.007 23.088 79.383 23.088C78.903 23.088 78.463 22.944 78.063 22.656C77.679 22.352 77.367 21.84 77.127 21.12C76.903 20.4 76.791 19.408 76.791 18.144V17.544C76.007 18.84 75.183 20.024 74.319 21.096C73.471 22.168 72.623 23.024 71.775 23.664C70.943 24.304 70.151 24.624 69.399 24.624ZM77.991 13.008C77.911 13.04 77.799 13.088 77.655 13.152C76.919 13.488 76.151 13.904 75.351 14.4C74.567 14.896 73.799 15.448 73.047 16.056C72.311 16.664 71.647 17.296 71.055 17.952C70.463 18.608 69.991 19.272 69.639 19.944C69.287 20.616 69.111 21.272 69.111 21.912C69.111 22.12 69.151 22.28 69.231 22.392C69.327 22.504 69.487 22.56 69.711 22.56C70.031 22.56 70.447 22.36 70.959 21.96C71.471 21.544 72.031 21 72.639 20.328C73.263 19.656 73.887 18.912 74.511 18.096C75.135 17.28 75.727 16.456 76.287 15.624C76.863 14.792 77.359 14.024 77.775 13.32C77.839 13.208 77.911 13.104 77.991 13.008Z" fill="url(#paint8_linear_713_95)" fill-opacity="0.3"/>
</g>
<g filter="url(#filter9_ddi_713_95)">
<path d="M64.4201 13.6559C64.4201 14.1679 64.2601 14.6719 63.9401 15.1679C63.6201 15.6479 63.1961 16.1119 62.6681 16.5599C62.1401 16.9919 61.5561 17.3999 60.9161 17.7839C60.2761 18.1679 59.6361 18.5039 58.9961 18.7919C58.3561 19.0799 57.7721 19.3119 57.2441 19.4879C57.1161 20.1119 57.0521 20.6639 57.0521 21.1439C57.0521 21.4479 57.1241 21.6639 57.2681 21.7919C57.4121 21.9199 57.6361 21.9839 57.9401 21.9839C58.6121 21.9839 59.3241 21.8639 60.0761 21.6239C60.8281 21.3839 61.5961 21.0719 62.3801 20.6879C63.1641 20.3039 63.9161 19.8959 64.6361 19.4639C65.3561 19.0319 66.0121 18.6239 66.6041 18.2399C67.2121 17.8559 67.7161 17.5439 68.1161 17.3039C68.5161 17.0639 68.7801 16.9439 68.9081 16.9439C69.1001 16.9439 69.2441 17.0079 69.3401 17.1359C69.4521 17.2479 69.5081 17.3839 69.5081 17.5439C69.5081 17.6719 69.3081 17.9199 68.9081 18.2879C68.5241 18.6559 68.0041 19.0879 67.3481 19.5839C66.6921 20.0639 65.9561 20.5599 65.1401 21.0719C64.3241 21.5839 63.4761 22.0639 62.5961 22.5119C61.7321 22.9599 60.8921 23.3199 60.0761 23.5919C59.2761 23.8639 58.5561 23.9999 57.9161 23.9999C57.0841 23.9999 56.4361 23.6879 55.9721 23.0639C55.5081 22.4399 55.2761 21.4719 55.2761 20.1599C55.2761 19.2799 55.3881 18.3919 55.6121 17.4959C55.8521 16.5999 56.1721 15.7439 56.5721 14.9279C56.9881 14.0959 57.4441 13.3599 57.9401 12.7199C58.4521 12.0639 58.9881 11.5519 59.5481 11.1839C60.1081 10.7999 60.6521 10.6079 61.1801 10.6079C62.1881 10.6079 62.9801 10.8879 63.5561 11.4479C64.1321 12.0079 64.4201 12.7439 64.4201 13.6559ZM57.7481 17.6399C58.2441 17.3359 58.7561 17.0159 59.2841 16.6799C59.8121 16.3439 60.3001 15.9999 60.7481 15.6479C61.1961 15.2959 61.5561 14.9279 61.8281 14.5439C62.1161 14.1439 62.2601 13.7359 62.2601 13.3199C62.2601 12.7279 61.9401 12.4319 61.3001 12.4319C60.9001 12.4319 60.4761 12.6879 60.0281 13.1999C59.5961 13.6959 59.1801 14.3439 58.7801 15.1439C58.3801 15.9439 58.0361 16.7759 57.7481 17.6399Z" fill="#668FE0"/>
<path d="M64.4201 13.6559C64.4201 14.1679 64.2601 14.6719 63.9401 15.1679C63.6201 15.6479 63.1961 16.1119 62.6681 16.5599C62.1401 16.9919 61.5561 17.3999 60.9161 17.7839C60.2761 18.1679 59.6361 18.5039 58.9961 18.7919C58.3561 19.0799 57.7721 19.3119 57.2441 19.4879C57.1161 20.1119 57.0521 20.6639 57.0521 21.1439C57.0521 21.4479 57.1241 21.6639 57.2681 21.7919C57.4121 21.9199 57.6361 21.9839 57.9401 21.9839C58.6121 21.9839 59.3241 21.8639 60.0761 21.6239C60.8281 21.3839 61.5961 21.0719 62.3801 20.6879C63.1641 20.3039 63.9161 19.8959 64.6361 19.4639C65.3561 19.0319 66.0121 18.6239 66.6041 18.2399C67.2121 17.8559 67.7161 17.5439 68.1161 17.3039C68.5161 17.0639 68.7801 16.9439 68.9081 16.9439C69.1001 16.9439 69.2441 17.0079 69.3401 17.1359C69.4521 17.2479 69.5081 17.3839 69.5081 17.5439C69.5081 17.6719 69.3081 17.9199 68.9081 18.2879C68.5241 18.6559 68.0041 19.0879 67.3481 19.5839C66.6921 20.0639 65.9561 20.5599 65.1401 21.0719C64.3241 21.5839 63.4761 22.0639 62.5961 22.5119C61.7321 22.9599 60.8921 23.3199 60.0761 23.5919C59.2761 23.8639 58.5561 23.9999 57.9161 23.9999C57.0841 23.9999 56.4361 23.6879 55.9721 23.0639C55.5081 22.4399 55.2761 21.4719 55.2761 20.1599C55.2761 19.2799 55.3881 18.3919 55.6121 17.4959C55.8521 16.5999 56.1721 15.7439 56.5721 14.9279C56.9881 14.0959 57.4441 13.3599 57.9401 12.7199C58.4521 12.0639 58.9881 11.5519 59.5481 11.1839C60.1081 10.7999 60.6521 10.6079 61.1801 10.6079C62.1881 10.6079 62.9801 10.8879 63.5561 11.4479C64.1321 12.0079 64.4201 12.7439 64.4201 13.6559ZM57.7481 17.6399C58.2441 17.3359 58.7561 17.0159 59.2841 16.6799C59.8121 16.3439 60.3001 15.9999 60.7481 15.6479C61.1961 15.2959 61.5561 14.9279 61.8281 14.5439C62.1161 14.1439 62.2601 13.7359 62.2601 13.3199C62.2601 12.7279 61.9401 12.4319 61.3001 12.4319C60.9001 12.4319 60.4761 12.6879 60.0281 13.1999C59.5961 13.6959 59.1801 14.3439 58.7801 15.1439C58.3801 15.9439 58.0361 16.7759 57.7481 17.6399Z" fill="url(#paint9_linear_713_95)" fill-opacity="0.3"/>
</g>
<g filter="url(#filter10_ddi_713_95)">
<path d="M40.7524 8.61591C40.0964 8.61591 39.6324 8.58391 39.3604 8.51991C39.0884 8.43991 38.9204 8.33591 38.8564 8.20791C38.8084 8.07991 38.7844 7.95191 38.7844 7.82391C38.7844 7.64791 38.8724 7.48791 39.0484 7.34391C39.2404 7.18391 39.6244 7.05591 40.2004 6.95991C40.9364 6.79991 41.8004 6.63991 42.7924 6.47991C43.8004 6.30391 44.8724 6.14391 46.0084 5.99991C47.1444 5.83991 48.2804 5.69591 49.4164 5.56791C50.5684 5.43991 51.6644 5.34391 52.7044 5.27991C53.7604 5.19991 54.6964 5.15991 55.5124 5.15991C56.6004 5.15991 57.3364 5.25591 57.7204 5.44791C58.1204 5.63991 58.3204 5.84791 58.3204 6.07191C58.3204 6.27991 58.2084 6.47191 57.9844 6.64791C57.7764 6.82391 57.4164 6.91191 56.9044 6.91191C56.6964 6.91191 56.2164 6.95991 55.4644 7.05591C54.7124 7.13591 53.7924 7.24791 52.7044 7.39191C51.6324 7.51991 50.4964 7.66391 49.2964 7.82391C49.2164 8.36791 49.0964 9.08791 48.9364 9.98391C48.7764 10.8639 48.5924 11.8319 48.3844 12.8879C48.1924 13.9439 47.9924 15.0079 47.7844 16.0799C47.5924 17.1359 47.4084 18.1199 47.2324 19.0319C47.0724 19.9439 46.9364 20.6959 46.8244 21.2879C46.7124 21.8799 46.6484 22.2319 46.6324 22.3439C46.5684 22.8399 46.4244 23.2159 46.2004 23.4719C45.9924 23.7119 45.7604 23.8319 45.5044 23.8319C45.2004 23.8319 44.9444 23.7039 44.7364 23.4479C44.5444 23.1759 44.4484 22.7039 44.4484 22.0319C44.4484 21.8079 44.4964 21.3759 44.5924 20.7359C44.6884 20.0799 44.8164 19.3039 44.9764 18.4079C45.1364 17.5119 45.3124 16.5599 45.5044 15.5519C45.6964 14.5439 45.8884 13.5599 46.0804 12.5999C46.2724 11.6239 46.4484 10.7439 46.6084 9.95991C46.7684 9.15991 46.8884 8.53591 46.9684 8.08791C45.7044 8.23191 44.5124 8.35991 43.3924 8.47191C42.2884 8.56791 41.4084 8.61591 40.7524 8.61591Z" fill="#668FE0"/>
<path d="M40.7524 8.61591C40.0964 8.61591 39.6324 8.58391 39.3604 8.51991C39.0884 8.43991 38.9204 8.33591 38.8564 8.20791C38.8084 8.07991 38.7844 7.95191 38.7844 7.82391C38.7844 7.64791 38.8724 7.48791 39.0484 7.34391C39.2404 7.18391 39.6244 7.05591 40.2004 6.95991C40.9364 6.79991 41.8004 6.63991 42.7924 6.47991C43.8004 6.30391 44.8724 6.14391 46.0084 5.99991C47.1444 5.83991 48.2804 5.69591 49.4164 5.56791C50.5684 5.43991 51.6644 5.34391 52.7044 5.27991C53.7604 5.19991 54.6964 5.15991 55.5124 5.15991C56.6004 5.15991 57.3364 5.25591 57.7204 5.44791C58.1204 5.63991 58.3204 5.84791 58.3204 6.07191C58.3204 6.27991 58.2084 6.47191 57.9844 6.64791C57.7764 6.82391 57.4164 6.91191 56.9044 6.91191C56.6964 6.91191 56.2164 6.95991 55.4644 7.05591C54.7124 7.13591 53.7924 7.24791 52.7044 7.39191C51.6324 7.51991 50.4964 7.66391 49.2964 7.82391C49.2164 8.36791 49.0964 9.08791 48.9364 9.98391C48.7764 10.8639 48.5924 11.8319 48.3844 12.8879C48.1924 13.9439 47.9924 15.0079 47.7844 16.0799C47.5924 17.1359 47.4084 18.1199 47.2324 19.0319C47.0724 19.9439 46.9364 20.6959 46.8244 21.2879C46.7124 21.8799 46.6484 22.2319 46.6324 22.3439C46.5684 22.8399 46.4244 23.2159 46.2004 23.4719C45.9924 23.7119 45.7604 23.8319 45.5044 23.8319C45.2004 23.8319 44.9444 23.7039 44.7364 23.4479C44.5444 23.1759 44.4484 22.7039 44.4484 22.0319C44.4484 21.8079 44.4964 21.3759 44.5924 20.7359C44.6884 20.0799 44.8164 19.3039 44.9764 18.4079C45.1364 17.5119 45.3124 16.5599 45.5044 15.5519C45.6964 14.5439 45.8884 13.5599 46.0804 12.5999C46.2724 11.6239 46.4484 10.7439 46.6084 9.95991C46.7684 9.15991 46.8884 8.53591 46.9684 8.08791C45.7044 8.23191 44.5124 8.35991 43.3924 8.47191C42.2884 8.56791 41.4084 8.61591 40.7524 8.61591Z" fill="url(#paint10_linear_713_95)" fill-opacity="0.3"/>
</g>
<g filter="url(#filter11_ddi_713_95)">
<path d="M9.87997 15.048C9.14397 15.048 8.68797 14.976 8.51197 14.832C8.35197 14.688 8.27197 14.496 8.27197 14.256C8.27197 13.984 8.71197 13.712 9.59197 13.44C10.472 13.168 11.832 12.944 13.672 12.768C15.528 12.576 17.896 12.48 20.776 12.48C21.656 12.48 22.32 12.536 22.768 12.648C23.232 12.76 23.552 12.904 23.728 13.08C23.904 13.24 23.992 13.424 23.992 13.632C23.992 13.824 23.872 14 23.632 14.16C23.408 14.304 23 14.432 22.408 14.544C21.832 14.656 21.008 14.752 19.936 14.832C18.88 14.896 17.528 14.952 15.88 15C14.248 15.032 12.248 15.048 9.87997 15.048Z" fill="#668FE0"/>
<path d="M9.87997 15.048C9.14397 15.048 8.68797 14.976 8.51197 14.832C8.35197 14.688 8.27197 14.496 8.27197 14.256C8.27197 13.984 8.71197 13.712 9.59197 13.44C10.472 13.168 11.832 12.944 13.672 12.768C15.528 12.576 17.896 12.48 20.776 12.48C21.656 12.48 22.32 12.536 22.768 12.648C23.232 12.76 23.552 12.904 23.728 13.08C23.904 13.24 23.992 13.424 23.992 13.632C23.992 13.824 23.872 14 23.632 14.16C23.408 14.304 23 14.432 22.408 14.544C21.832 14.656 21.008 14.752 19.936 14.832C18.88 14.896 17.528 14.952 15.88 15C14.248 15.032 12.248 15.048 9.87997 15.048Z" fill="url(#paint11_linear_713_95)" fill-opacity="0.3"/>
</g>
<defs>
<filter id="filter0_ddi_713_95" x="195.145" y="0.800049" width="32.7073" height="36.832" filterUnits="userSpaceOnUse" color-interpolation-filters="sRGB">
<feFlood flood-opacity="0" result="BackgroundImageFix"/>
<feColorMatrix in="SourceAlpha" type="matrix" values="0 0 0 0 0 0 0 0 0 0 0 0 0 0 0 0 0 0 127 0" result="hardAlpha"/>
<feOffset dy="4"/>
<feGaussianBlur stdDeviation="4"/>
<feComposite in2="hardAlpha" operator="out"/>
<feColorMatrix type="matrix" values="0 0 0 0 0 0 0 0 0 0 0 0 0 0 0 0 0 0 0.32 0"/>
<feBlend mode="normal" in2="BackgroundImageFix" result="effect1_dropShadow_713_95"/>
<feColorMatrix in="SourceAlpha" type="matrix" values="0 0 0 0 0 0 0 0 0 0 0 0 0 0 0 0 0 0 127 0" result="hardAlpha"/>
<feOffset dy="2"/>
<feGaussianBlur stdDeviation="2"/>
<feComposite in2="hardAlpha" operator="out"/>
<feColorMatrix type="matrix" values="0 0 0 0 0 0 0 0 0 0 0 0 0 0 0 0 0 0 0.32 0"/>
<feBlend mode="normal" in2="effect1_dropShadow_713_95" result="effect2_dropShadow_713_95"/>
<feBlend mode="normal" in="SourceGraphic" in2="effect2_dropShadow_713_95" result="shape"/>
<feColorMatrix in="SourceAlpha" type="matrix" values="0 0 0 0 0 0 0 0 0 0 0 0 0 0 0 0 0 0 127 0" result="hardAlpha"/>
<feOffset dy="-1"/>
<feComposite in2="hardAlpha" operator="arithmetic" k2="-1" k3="1"/>
<feColorMatrix type="matrix" values="0 0 0 0 0 0 0 0 0 0 0 0 0 0 0 0 0 0 0.2 0"/>
<feBlend mode="normal" in2="shape" result="effect3_innerShadow_713_95"/>
</filter>
<filter id="filter1_ddi_713_95" x="184.629" y="4.71191" width="26.176" height="31.816" filterUnits="userSpaceOnUse" color-interpolation-filters="sRGB">
<feFlood flood-opacity="0" result="BackgroundImageFix"/>
<feColorMatrix in="SourceAlpha" type="matrix" values="0 0 0 0 0 0 0 0 0 0 0 0 0 0 0 0 0 0 127 0" result="hardAlpha"/>
<feOffset dy="4"/>
<feGaussianBlur stdDeviation="4"/>
<feComposite in2="hardAlpha" operator="out"/>
<feColorMatrix type="matrix" values="0 0 0 0 0 0 0 0 0 0 0 0 0 0 0 0 0 0 0.32 0"/>
<feBlend mode="normal" in2="BackgroundImageFix" result="effect1_dropShadow_713_95"/>
<feColorMatrix in="SourceAlpha" type="matrix" values="0 0 0 0 0 0 0 0 0 0 0 0 0 0 0 0 0 0 127 0" result="hardAlpha"/>
<feOffset dy="2"/>
<feGaussianBlur stdDeviation="2"/>
<feComposite in2="hardAlpha" operator="out"/>
<feColorMatrix type="matrix" values="0 0 0 0 0 0 0 0 0 0 0 0 0 0 0 0 0 0 0.32 0"/>
<feBlend mode="normal" in2="effect1_dropShadow_713_95" result="effect2_dropShadow_713_95"/>
<feBlend mode="normal" in="SourceGraphic" in2="effect2_dropShadow_713_95" result="shape"/>
<feColorMatrix in="SourceAlpha" type="matrix" values="0 0 0 0 0 0 0 0 0 0 0 0 0 0 0 0 0 0 127 0" result="hardAlpha"/>
<feOffset dy="-1"/>
<feComposite in2="hardAlpha" operator="arithmetic" k2="-1" k3="1"/>
<feColorMatrix type="matrix" values="0 0 0 0 0 0 0 0 0 0 0 0 0 0 0 0 0 0 0.2 0"/>
<feBlend mode="normal" in2="shape" result="effect3_innerShadow_713_95"/>
</filter>
<filter id="filter2_ddi_713_95" x="173.159" y="6.03198" width="25.504" height="30.208" filterUnits="userSpaceOnUse" color-interpolation-filters="sRGB">
<feFlood flood-opacity="0" result="BackgroundImageFix"/>
<feColorMatrix in="SourceAlpha" type="matrix" values="0 0 0 0 0 0 0 0 0 0 0 0 0 0 0 0 0 0 127 0" result="hardAlpha"/>
<feOffset dy="4"/>
<feGaussianBlur stdDeviation="4"/>
<feComposite in2="hardAlpha" operator="out"/>
<feColorMatrix type="matrix" values="0 0 0 0 0 0 0 0 0 0 0 0 0 0 0 0 0 0 0.32 0"/>
<feBlend mode="normal" in2="BackgroundImageFix" result="effect1_dropShadow_713_95"/>
<feColorMatrix in="SourceAlpha" type="matrix" values="0 0 0 0 0 0 0 0 0 0 0 0 0 0 0 0 0 0 127 0" result="hardAlpha"/>
<feOffset dy="2"/>
<feGaussianBlur stdDeviation="2"/>
<feComposite in2="hardAlpha" operator="out"/>
<feColorMatrix type="matrix" values="0 0 0 0 0 0 0 0 0 0 0 0 0 0 0 0 0 0 0.32 0"/>
<feBlend mode="normal" in2="effect1_dropShadow_713_95" result="effect2_dropShadow_713_95"/>
<feBlend mode="normal" in="SourceGraphic" in2="effect2_dropShadow_713_95" result="shape"/>
<feColorMatrix in="SourceAlpha" type="matrix" values="0 0 0 0 0 0 0 0 0 0 0 0 0 0 0 0 0 0 127 0" result="hardAlpha"/>
<feOffset dy="-1"/>
<feComposite in2="hardAlpha" operator="arithmetic" k2="-1" k3="1"/>
<feColorMatrix type="matrix" values="0 0 0 0 0 0 0 0 0 0 0 0 0 0 0 0 0 0 0.2 0"/>
<feBlend mode="normal" in2="shape" result="effect3_innerShadow_713_95"/>
</filter>
<filter id="filter3_ddi_713_95" x="156.785" y="6.76807" width="29.656" height="37.36" filterUnits="userSpaceOnUse" color-interpolation-filters="sRGB">
<feFlood flood-opacity="0" result="BackgroundImageFix"/>
<feColorMatrix in="SourceAlpha" type="matrix" values="0 0 0 0 0 0 0 0 0 0 0 0 0 0 0 0 0 0 127 0" result="hardAlpha"/>
<feOffset dy="4"/>
<feGaussianBlur stdDeviation="4"/>
<feComposite in2="hardAlpha" operator="out"/>
<feColorMatrix type="matrix" values="0 0 0 0 0 0 0 0 0 0 0 0 0 0 0 0 0 0 0.32 0"/>
<feBlend mode="normal" in2="BackgroundImageFix" result="effect1_dropShadow_713_95"/>
<feColorMatrix in="SourceAlpha" type="matrix" values="0 0 0 0 0 0 0 0 0 0 0 0 0 0 0 0 0 0 127 0" result="hardAlpha"/>
<feOffset dy="2"/>
<feGaussianBlur stdDeviation="2"/>
<feComposite in2="hardAlpha" operator="out"/>
<feColorMatrix type="matrix" values="0 0 0 0 0 0 0 0 0 0 0 0 0 0 0 0 0 0 0.32 0"/>
<feBlend mode="normal" in2="effect1_dropShadow_713_95" result="effect2_dropShadow_713_95"/>
<feBlend mode="normal" in="SourceGraphic" in2="effect2_dropShadow_713_95" result="shape"/>
<feColorMatrix in="SourceAlpha" type="matrix" values="0 0 0 0 0 0 0 0 0 0 0 0 0 0 0 0 0 0 127 0" result="hardAlpha"/>
<feOffset dy="-1"/>
<feComposite in2="hardAlpha" operator="arithmetic" k2="-1" k3="1"/>
<feColorMatrix type="matrix" values="0 0 0 0 0 0 0 0 0 0 0 0 0 0 0 0 0 0 0.2 0"/>
<feBlend mode="normal" in2="shape" result="effect3_innerShadow_713_95"/>
</filter>
<filter id="filter4_ddi_713_95" x="145.012" y="0.800049" width="32.7073" height="36.832" filterUnits="userSpaceOnUse" color-interpolation-filters="sRGB">
<feFlood flood-opacity="0" result="BackgroundImageFix"/>
<feColorMatrix in="SourceAlpha" type="matrix" values="0 0 0 0 0 0 0 0 0 0 0 0 0 0 0 0 0 0 127 0" result="hardAlpha"/>
<feOffset dy="4"/>
<feGaussianBlur stdDeviation="4"/>
<feComposite in2="hardAlpha" operator="out"/>
<feColorMatrix type="matrix" values="0 0 0 0 0 0 0 0 0 0 0 0 0 0 0 0 0 0 0.32 0"/>
<feBlend mode="normal" in2="BackgroundImageFix" result="effect1_dropShadow_713_95"/>
<feColorMatrix in="SourceAlpha" type="matrix" values="0 0 0 0 0 0 0 0 0 0 0 0 0 0 0 0 0 0 127 0" result="hardAlpha"/>
<feOffset dy="2"/>
<feGaussianBlur stdDeviation="2"/>
<feComposite in2="hardAlpha" operator="out"/>
<feColorMatrix type="matrix" values="0 0 0 0 0 0 0 0 0 0 0 0 0 0 0 0 0 0 0.32 0"/>
<feBlend mode="normal" in2="effect1_dropShadow_713_95" result="effect2_dropShadow_713_95"/>
<feBlend mode="normal" in="SourceGraphic" in2="effect2_dropShadow_713_95" result="shape"/>
<feColorMatrix in="SourceAlpha" type="matrix" values="0 0 0 0 0 0 0 0 0 0 0 0 0 0 0 0 0 0 127 0" result="hardAlpha"/>
<feOffset dy="-1"/>
<feComposite in2="hardAlpha" operator="arithmetic" k2="-1" k3="1"/>
<feColorMatrix type="matrix" values="0 0 0 0 0 0 0 0 0 0 0 0 0 0 0 0 0 0 0.2 0"/>
<feBlend mode="normal" in2="shape" result="effect3_innerShadow_713_95"/>
</filter>
<filter id="filter5_ddi_713_95" x="133.825" y="5.88794" width="26.248" height="30.688" filterUnits="userSpaceOnUse" color-interpolation-filters="sRGB">
<feFlood flood-opacity="0" result="BackgroundImageFix"/>
<feColorMatrix in="SourceAlpha" type="matrix" values="0 0 0 0 0 0 0 0 0 0 0 0 0 0 0 0 0 0 127 0" result="hardAlpha"/>
<feOffset dy="4"/>
<feGaussianBlur stdDeviation="4"/>
<feComposite in2="hardAlpha" operator="out"/>
<feColorMatrix type="matrix" values="0 0 0 0 0 0 0 0 0 0 0 0 0 0 0 0 0 0 0.32 0"/>
<feBlend mode="normal" in2="BackgroundImageFix" result="effect1_dropShadow_713_95"/>
<feColorMatrix in="SourceAlpha" type="matrix" values="0 0 0 0 0 0 0 0 0 0 0 0 0 0 0 0 0 0 127 0" result="hardAlpha"/>
<feOffset dy="2"/>
<feGaussianBlur stdDeviation="2"/>
<feComposite in2="hardAlpha" operator="out"/>
<feColorMatrix type="matrix" values="0 0 0 0 0 0 0 0 0 0 0 0 0 0 0 0 0 0 0.32 0"/>
<feBlend mode="normal" in2="effect1_dropShadow_713_95" result="effect2_dropShadow_713_95"/>
<feBlend mode="normal" in="SourceGraphic" in2="effect2_dropShadow_713_95" result="shape"/>
<feColorMatrix in="SourceAlpha" type="matrix" values="0 0 0 0 0 0 0 0 0 0 0 0 0 0 0 0 0 0 127 0" result="hardAlpha"/>
<feOffset dy="-1"/>
<feComposite in2="hardAlpha" operator="arithmetic" k2="-1" k3="1"/>
<feColorMatrix type="matrix" values="0 0 0 0 0 0 0 0 0 0 0 0 0 0 0 0 0 0 0.2 0"/>
<feBlend mode="normal" in2="shape" result="effect3_innerShadow_713_95"/>
</filter>
<filter id="filter6_ddi_713_95" x="113.791" y="1.68799" width="31.3361" height="34.744" filterUnits="userSpaceOnUse" color-interpolation-filters="sRGB">
<feFlood flood-opacity="0" result="BackgroundImageFix"/>
<feColorMatrix in="SourceAlpha" type="matrix" values="0 0 0 0 0 0 0 0 0 0 0 0 0 0 0 0 0 0 127 0" result="hardAlpha"/>
<feOffset dy="4"/>
<feGaussianBlur stdDeviation="4"/>
<feComposite in2="hardAlpha" operator="out"/>
<feColorMatrix type="matrix" values="0 0 0 0 0 0 0 0 0 0 0 0 0 0 0 0 0 0 0.32 0"/>
<feBlend mode="normal" in2="BackgroundImageFix" result="effect1_dropShadow_713_95"/>
<feColorMatrix in="SourceAlpha" type="matrix" values="0 0 0 0 0 0 0 0 0 0 0 0 0 0 0 0 0 0 127 0" result="hardAlpha"/>
<feOffset dy="2"/>
<feGaussianBlur stdDeviation="2"/>
<feComposite in2="hardAlpha" operator="out"/>
<feColorMatrix type="matrix" values="0 0 0 0 0 0 0 0 0 0 0 0 0 0 0 0 0 0 0.32 0"/>
<feBlend mode="normal" in2="effect1_dropShadow_713_95" result="effect2_dropShadow_713_95"/>
<feBlend mode="normal" in="SourceGraphic" in2="effect2_dropShadow_713_95" result="shape"/>
<feColorMatrix in="SourceAlpha" type="matrix" values="0 0 0 0 0 0 0 0 0 0 0 0 0 0 0 0 0 0 127 0" result="hardAlpha"/>
<feOffset dy="-1"/>
<feComposite in2="hardAlpha" operator="arithmetic" k2="-1" k3="1"/>
<feColorMatrix type="matrix" values="0 0 0 0 0 0 0 0 0 0 0 0 0 0 0 0 0 0 0.2 0"/>
<feBlend mode="normal" in2="shape" result="effect3_innerShadow_713_95"/>
</filter>
<filter id="filter7_ddi_713_95" x="77.0901" y="5.23999" width="36.304" height="30.904" filterUnits="userSpaceOnUse" color-interpolation-filters="sRGB">
<feFlood flood-opacity="0" result="BackgroundImageFix"/>
<feColorMatrix in="SourceAlpha" type="matrix" values="0 0 0 0 0 0 0 0 0 0 0 0 0 0 0 0 0 0 127 0" result="hardAlpha"/>
<feOffset dy="4"/>
<feGaussianBlur stdDeviation="4"/>
<feComposite in2="hardAlpha" operator="out"/>
<feColorMatrix type="matrix" values="0 0 0 0 0 0 0 0 0 0 0 0 0 0 0 0 0 0 0.32 0"/>
<feBlend mode="normal" in2="BackgroundImageFix" result="effect1_dropShadow_713_95"/>
<feColorMatrix in="SourceAlpha" type="matrix" values="0 0 0 0 0 0 0 0 0 0 0 0 0 0 0 0 0 0 127 0" result="hardAlpha"/>
<feOffset dy="2"/>
<feGaussianBlur stdDeviation="2"/>
<feComposite in2="hardAlpha" operator="out"/>
<feColorMatrix type="matrix" values="0 0 0 0 0 0 0 0 0 0 0 0 0 0 0 0 0 0 0.32 0"/>
<feBlend mode="normal" in2="effect1_dropShadow_713_95" result="effect2_dropShadow_713_95"/>
<feBlend mode="normal" in="SourceGraphic" in2="effect2_dropShadow_713_95" result="shape"/>
<feColorMatrix in="SourceAlpha" type="matrix" values="0 0 0 0 0 0 0 0 0 0 0 0 0 0 0 0 0 0 127 0" result="hardAlpha"/>
<feOffset dy="-1"/>
<feComposite in2="hardAlpha" operator="arithmetic" k2="-1" k3="1"/>
<feColorMatrix type="matrix" values="0 0 0 0 0 0 0 0 0 0 0 0 0 0 0 0 0 0 0.2 0"/>
<feBlend mode="normal" in2="shape" result="effect3_innerShadow_713_95"/>
</filter>
<filter id="filter8_ddi_713_95" x="59.311" y="7.28003" width="35.584" height="29.344" filterUnits="userSpaceOnUse" color-interpolation-filters="sRGB">
<feFlood flood-opacity="0" result="BackgroundImageFix"/>
<feColorMatrix in="SourceAlpha" type="matrix" values="0 0 0 0 0 0 0 0 0 0 0 0 0 0 0 0 0 0 127 0" result="hardAlpha"/>
<feOffset dy="4"/>
<feGaussianBlur stdDeviation="4"/>
<feComposite in2="hardAlpha" operator="out"/>
<feColorMatrix type="matrix" values="0 0 0 0 0 0 0 0 0 0 0 0 0 0 0 0 0 0 0.32 0"/>
<feBlend mode="normal" in2="BackgroundImageFix" result="effect1_dropShadow_713_95"/>
<feColorMatrix in="SourceAlpha" type="matrix" values="0 0 0 0 0 0 0 0 0 0 0 0 0 0 0 0 0 0 127 0" result="hardAlpha"/>
<feOffset dy="2"/>
<feGaussianBlur stdDeviation="2"/>
<feComposite in2="hardAlpha" operator="out"/>
<feColorMatrix type="matrix" values="0 0 0 0 0 0 0 0 0 0 0 0 0 0 0 0 0 0 0.32 0"/>
<feBlend mode="normal" in2="effect1_dropShadow_713_95" result="effect2_dropShadow_713_95"/>
<feBlend mode="normal" in="SourceGraphic" in2="effect2_dropShadow_713_95" result="shape"/>
<feColorMatrix in="SourceAlpha" type="matrix" values="0 0 0 0 0 0 0 0 0 0 0 0 0 0 0 0 0 0 127 0" result="hardAlpha"/>
<feOffset dy="-1"/>
<feComposite in2="hardAlpha" operator="arithmetic" k2="-1" k3="1"/>
<feColorMatrix type="matrix" values="0 0 0 0 0 0 0 0 0 0 0 0 0 0 0 0 0 0 0.2 0"/>
<feBlend mode="normal" in2="shape" result="effect3_innerShadow_713_95"/>
</filter>
<filter id="filter9_ddi_713_95" x="47.2761" y="6.60791" width="30.2321" height="29.392" filterUnits="userSpaceOnUse" color-interpolation-filters="sRGB">
<feFlood flood-opacity="0" result="BackgroundImageFix"/>
<feColorMatrix in="SourceAlpha" type="matrix" values="0 0 0 0 0 0 0 0 0 0 0 0 0 0 0 0 0 0 127 0" result="hardAlpha"/>
<feOffset dy="4"/>
<feGaussianBlur stdDeviation="4"/>
<feComposite in2="hardAlpha" operator="out"/>
<feColorMatrix type="matrix" values="0 0 0 0 0 0 0 0 0 0 0 0 0 0 0 0 0 0 0.32 0"/>
<feBlend mode="normal" in2="BackgroundImageFix" result="effect1_dropShadow_713_95"/>
<feColorMatrix in="SourceAlpha" type="matrix" values="0 0 0 0 0 0 0 0 0 0 0 0 0 0 0 0 0 0 127 0" result="hardAlpha"/>
<feOffset dy="2"/>
<feGaussianBlur stdDeviation="2"/>
<feComposite in2="hardAlpha" operator="out"/>
<feColorMatrix type="matrix" values="0 0 0 0 0 0 0 0 0 0 0 0 0 0 0 0 0 0 0.32 0"/>
<feBlend mode="normal" in2="effect1_dropShadow_713_95" result="effect2_dropShadow_713_95"/>
<feBlend mode="normal" in="SourceGraphic" in2="effect2_dropShadow_713_95" result="shape"/>
<feColorMatrix in="SourceAlpha" type="matrix" values="0 0 0 0 0 0 0 0 0 0 0 0 0 0 0 0 0 0 127 0" result="hardAlpha"/>
<feOffset dy="-1"/>
<feComposite in2="hardAlpha" operator="arithmetic" k2="-1" k3="1"/>
<feColorMatrix type="matrix" values="0 0 0 0 0 0 0 0 0 0 0 0 0 0 0 0 0 0 0.2 0"/>
<feBlend mode="normal" in2="shape" result="effect3_innerShadow_713_95"/>
</filter>
<filter id="filter10_ddi_713_95" x="30.7844" y="1.15991" width="35.536" height="34.672" filterUnits="userSpaceOnUse" color-interpolation-filters="sRGB">
<feFlood flood-opacity="0" result="BackgroundImageFix"/>
<feColorMatrix in="SourceAlpha" type="matrix" values="0 0 0 0 0 0 0 0 0 0 0 0 0 0 0 0 0 0 127 0" result="hardAlpha"/>
<feOffset dy="4"/>
<feGaussianBlur stdDeviation="4"/>
<feComposite in2="hardAlpha" operator="out"/>
<feColorMatrix type="matrix" values="0 0 0 0 0 0 0 0 0 0 0 0 0 0 0 0 0 0 0.32 0"/>
<feBlend mode="normal" in2="BackgroundImageFix" result="effect1_dropShadow_713_95"/>
<feColorMatrix in="SourceAlpha" type="matrix" values="0 0 0 0 0 0 0 0 0 0 0 0 0 0 0 0 0 0 127 0" result="hardAlpha"/>
<feOffset dy="2"/>
<feGaussianBlur stdDeviation="2"/>
<feComposite in2="hardAlpha" operator="out"/>
<feColorMatrix type="matrix" values="0 0 0 0 0 0 0 0 0 0 0 0 0 0 0 0 0 0 0.32 0"/>
<feBlend mode="normal" in2="effect1_dropShadow_713_95" result="effect2_dropShadow_713_95"/>
<feBlend mode="normal" in="SourceGraphic" in2="effect2_dropShadow_713_95" result="shape"/>
<feColorMatrix in="SourceAlpha" type="matrix" values="0 0 0 0 0 0 0 0 0 0 0 0 0 0 0 0 0 0 127 0" result="hardAlpha"/>
<feOffset dy="-1"/>
<feComposite in2="hardAlpha" operator="arithmetic" k2="-1" k3="1"/>
<feColorMatrix type="matrix" values="0 0 0 0 0 0 0 0 0 0 0 0 0 0 0 0 0 0 0.2 0"/>
<feBlend mode="normal" in2="shape" result="effect3_innerShadow_713_95"/>
</filter>
<filter id="filter11_ddi_713_95" x="0.271973" y="8.47998" width="31.72" height="18.568" filterUnits="userSpaceOnUse" color-interpolation-filters="sRGB">
<feFlood flood-opacity="0" result="BackgroundImageFix"/>
<feColorMatrix in="SourceAlpha" type="matrix" values="0 0 0 0 0 0 0 0 0 0 0 0 0 0 0 0 0 0 127 0" result="hardAlpha"/>
<feOffset dy="4"/>
<feGaussianBlur stdDeviation="4"/>
<feComposite in2="hardAlpha" operator="out"/>
<feColorMatrix type="matrix" values="0 0 0 0 0 0 0 0 0 0 0 0 0 0 0 0 0 0 0.32 0"/>
<feBlend mode="normal" in2="BackgroundImageFix" result="effect1_dropShadow_713_95"/>
<feColorMatrix in="SourceAlpha" type="matrix" values="0 0 0 0 0 0 0 0 0 0 0 0 0 0 0 0 0 0 127 0" result="hardAlpha"/>
<feOffset dy="2"/>
<feGaussianBlur stdDeviation="2"/>
<feComposite in2="hardAlpha" operator="out"/>
<feColorMatrix type="matrix" values="0 0 0 0 0 0 0 0 0 0 0 0 0 0 0 0 0 0 0.32 0"/>
<feBlend mode="normal" in2="effect1_dropShadow_713_95" result="effect2_dropShadow_713_95"/>
<feBlend mode="normal" in="SourceGraphic" in2="effect2_dropShadow_713_95" result="shape"/>
<feColorMatrix in="SourceAlpha" type="matrix" values="0 0 0 0 0 0 0 0 0 0 0 0 0 0 0 0 0 0 127 0" result="hardAlpha"/>
<feOffset dy="-1"/>
<feComposite in2="hardAlpha" operator="arithmetic" k2="-1" k3="1"/>
<feColorMatrix type="matrix" values="0 0 0 0 0 0 0 0 0 0 0 0 0 0 0 0 0 0 0.2 0"/>
<feBlend mode="normal" in2="shape" result="effect3_innerShadow_713_95"/>
</filter>
<linearGradient id="paint0_linear_713_95" x1="111.5" y1="-1" x2="111.5" y2="24" gradientUnits="userSpaceOnUse">
<stop stop-color="white"/>
<stop offset="1" stop-color="white" stop-opacity="0"/>
</linearGradient>
<linearGradient id="paint1_linear_713_95" x1="111.5" y1="-1" x2="111.5" y2="24" gradientUnits="userSpaceOnUse">
<stop stop-color="white"/>
<stop offset="1" stop-color="white" stop-opacity="0"/>
</linearGradient>
<linearGradient id="paint2_linear_713_95" x1="111.5" y1="-1" x2="111.5" y2="24" gradientUnits="userSpaceOnUse">
<stop stop-color="white"/>
<stop offset="1" stop-color="white" stop-opacity="0"/>
</linearGradient>
<linearGradient id="paint3_linear_713_95" x1="111.5" y1="-1" x2="111.5" y2="24" gradientUnits="userSpaceOnUse">
<stop stop-color="white"/>
<stop offset="1" stop-color="white" stop-opacity="0"/>
</linearGradient>
<linearGradient id="paint4_linear_713_95" x1="111.5" y1="-1" x2="111.5" y2="24" gradientUnits="userSpaceOnUse">
<stop stop-color="white"/>
<stop offset="1" stop-color="white" stop-opacity="0"/>
</linearGradient>
<linearGradient id="paint5_linear_713_95" x1="111.5" y1="-1" x2="111.5" y2="24" gradientUnits="userSpaceOnUse">
<stop stop-color="white"/>
<stop offset="1" stop-color="white" stop-opacity="0"/>
</linearGradient>
<linearGradient id="paint6_linear_713_95" x1="111.5" y1="-1" x2="111.5" y2="24" gradientUnits="userSpaceOnUse">
<stop stop-color="white"/>
<stop offset="1" stop-color="white" stop-opacity="0"/>
</linearGradient>
<linearGradient id="paint7_linear_713_95" x1="111.5" y1="-1" x2="111.5" y2="24" gradientUnits="userSpaceOnUse">
<stop stop-color="white"/>
<stop offset="1" stop-color="white" stop-opacity="0"/>
</linearGradient>
<linearGradient id="paint8_linear_713_95" x1="111.5" y1="-1" x2="111.5" y2="24" gradientUnits="userSpaceOnUse">
<stop stop-color="white"/>
<stop offset="1" stop-color="white" stop-opacity="0"/>
</linearGradient>
<linearGradient id="paint9_linear_713_95" x1="111.5" y1="-1" x2="111.5" y2="24" gradientUnits="userSpaceOnUse">
<stop stop-color="white"/>
<stop offset="1" stop-color="white" stop-opacity="0"/>
</linearGradient>
<linearGradient id="paint10_linear_713_95" x1="111.5" y1="-1" x2="111.5" y2="24" gradientUnits="userSpaceOnUse">
<stop stop-color="white"/>
<stop offset="1" stop-color="white" stop-opacity="0"/>
</linearGradient>
<linearGradient id="paint11_linear_713_95" x1="111.5" y1="-1" x2="111.5" y2="24" gradientUnits="userSpaceOnUse">
<stop stop-color="white"/>
<stop offset="1" stop-color="white" stop-opacity="0"/>
</linearGradient>
</defs>
</svg>
