<svg width="24" height="24" viewBox="0 0 24 24" fill="none" xmlns="http://www.w3.org/2000/svg">
<path d="M22.8 1.19995H1.19995V22.8H22.8V1.19995Z" fill="url(#paint0_linear_747_180)"/>
<path fill-rule="evenodd" clip-rule="evenodd" d="M8.95353 12.9956L9.76405 12.1948C9.81484 12.1446 9.84348 12.0764 9.84375 12.0053C9.84402 11.9341 9.81565 11.8657 9.76513 11.8152L8.95461 11.0053L8.57151 11.3838L8.91922 11.7315H7.68236V12.2684H8.92354L8.57259 12.6149L8.95353 12.9956ZM15.1394 13.02L16.2201 12.2141C16.2877 12.1634 16.3279 12.0839 16.3279 11.9996C16.3279 11.9151 16.2877 11.8354 16.2199 11.7846L15.1392 10.9798L14.8149 11.4093L15.2472 11.7315H14.1665V12.2684H15.247L14.8147 12.5905L15.1394 13.02ZM10.7061 11.9999C10.7061 12.5698 10.6075 13.1073 10.4233 13.5749C10.9093 13.3881 11.4575 13.2946 12.0051 13.2946C12.5528 13.2946 13.101 13.3881 13.5867 13.5749C13.4028 13.1073 13.3041 12.5698 13.3041 11.9999C13.3041 11.43 13.4028 10.8928 13.5867 10.4249C12.6149 10.7983 11.3954 10.7983 10.4233 10.4249C10.6075 10.8928 10.7061 11.43 10.7061 11.9999ZM9.38257 14.6057C9.32988 14.5534 9.30341 14.4847 9.30341 14.4159C9.30341 14.3472 9.32988 14.2785 9.38257 14.2262C9.87293 13.7389 10.1658 12.9065 10.1658 11.9999C10.1658 11.0934 9.87293 10.2609 9.38257 9.77368C9.32988 9.72133 9.30341 9.65261 9.30341 9.58389C9.30341 9.51517 9.32988 9.44644 9.38257 9.3941C9.4882 9.28913 9.65895 9.28913 9.76459 9.3941C10.8115 10.4343 13.1988 10.4343 14.2457 9.3941C14.3513 9.28913 14.5221 9.28913 14.6277 9.3941C14.6804 9.44644 14.7069 9.51517 14.7069 9.58389C14.7069 9.65261 14.6804 9.72133 14.6277 9.77368C14.1374 10.2609 13.8445 11.0934 13.8445 11.9999C13.8445 12.9065 14.1374 13.7389 14.6277 14.2262C14.6804 14.2785 14.7069 14.3472 14.7069 14.4159C14.7069 14.4847 14.6804 14.5534 14.6277 14.6057C14.575 14.6581 14.5059 14.6844 14.4367 14.6844C14.3675 14.6844 14.2984 14.6581 14.2457 14.6057C13.1988 13.5655 10.8115 13.5655 9.76459 14.6057C9.65895 14.7107 9.4882 14.7107 9.38257 14.6057ZM19.0202 12.0013C19.0202 11.7511 18.9221 11.5159 18.7441 11.339C18.5604 11.1562 18.3188 11.0652 18.0776 11.0652C17.8363 11.0652 17.5948 11.1562 17.411 11.339C17.0433 11.7041 17.0433 12.2982 17.411 12.6635C17.7785 13.0286 18.3761 13.0289 18.7441 12.6635C18.9221 12.4866 19.0202 12.2515 19.0202 12.0013ZM19.1261 13.0431C18.837 13.3303 18.4574 13.474 18.0776 13.474C17.6977 13.474 17.3181 13.3303 17.029 13.0431C16.4506 12.4686 16.4506 11.5339 17.029 10.9594C17.6075 10.3844 18.5482 10.3849 19.1261 10.9594C19.7046 11.5339 19.7046 12.4686 19.1261 13.0431ZM6.86455 12.0074C6.86455 11.7572 6.76647 11.5221 6.58843 11.3452C6.41039 11.1683 6.17371 11.0708 5.92191 11.0708C5.67038 11.0708 5.43371 11.1683 5.25539 11.3452C5.07735 11.5221 4.97955 11.7572 4.97955 12.0074C4.97955 12.2574 5.07735 12.4925 5.25539 12.6697C5.61175 13.0232 6.23234 13.0232 6.58843 12.6697C6.76647 12.4925 6.86455 12.2574 6.86455 12.0074ZM6.97046 13.0493C6.68137 13.3365 6.30178 13.4801 5.92191 13.4801C5.54232 13.4801 5.16272 13.3365 4.87337 13.0493C4.29547 12.4748 4.29547 11.5401 4.87337 10.9656C5.45181 10.3911 6.39228 10.3911 6.97046 10.9656C7.54863 11.5401 7.54863 12.4748 6.97046 13.0493ZM16.0218 16.0111C14.9433 17.083 13.5089 17.673 11.9835 17.673C10.4576 17.673 9.02351 17.083 7.94497 16.0111C7.20524 15.2763 6.79808 14.3982 6.58681 13.7913L6.07618 13.9668C6.3061 14.6272 6.75053 15.5837 7.56295 16.3906C8.74361 17.564 10.3133 18.2099 11.9835 18.2099C13.6535 18.2099 15.2232 17.564 16.4038 16.3906C17.086 15.7134 17.6293 14.8522 17.9344 13.966L17.4232 13.7921C17.1444 14.6022 16.6467 15.3904 16.0218 16.0111ZM6.58654 10.2088L6.07645 10.0327C6.40336 9.09746 6.93182 8.23628 7.56457 7.60784C8.74469 6.43553 10.3139 5.78992 11.9835 5.78992C13.6532 5.78992 15.2224 6.43553 16.4022 7.60784C17.0682 8.26957 17.6266 9.1533 17.9338 10.0327L17.4237 10.2088C17.142 9.40349 16.6305 8.59385 16.0202 7.98743C14.9425 6.91632 13.5087 6.32681 11.9835 6.32681C10.4581 6.32681 9.02459 6.91632 7.94659 7.98743C7.37058 8.56003 6.88751 9.349 6.58654 10.2088Z" fill="white"/>
<defs>
<linearGradient id="paint0_linear_747_180" x1="1.19995" y1="2161.2" x2="2161.2" y2="1.19995" gradientUnits="userSpaceOnUse">
<stop stop-color="#B0084D"/>
<stop offset="1" stop-color="#FF4F8B"/>
</linearGradient>
</defs>
</svg>
